<?xml version="1.0" encoding="UTF-8"?>
<svg id="Capa_2" data-name="Capa 2" xmlns="http://www.w3.org/2000/svg" viewBox="0 0 206.47 206.47">
  <defs>
    <style>
      .cls-1 {
        fill: #fff;
      }
    </style>
  </defs>
  <g id="Capa_2-2" data-name="Capa 2">
    <path class="cls-1" d="M206.47,103.23c0,57.01-46.22,103.23-103.23,103.23S0,160.25,0,103.23,46.22,0,103.23,0s103.23,46.22,103.23,103.23ZM60.89,63.37l35.89.05V13.51c-8.12,2.52-14.4,7.68-19.62,14.34-7.86,10.59-13.43,22.6-16.27,35.53ZM145.9,63.37c-4.06-14.29-9.59-26.84-18.56-37.57-5.02-5.48-10.3-10.09-17.63-12.33v49.95s36.18-.05,36.18-.05ZM47.18,63.86c3.25-16.05,9.52-29.18,18.46-42.73-19.59,8.46-34.49,23.41-43.71,42.66l25.25.07ZM184.52,63.77c-9.61-18.9-24.14-34.18-43.69-42.65,9.04,13.73,15.35,27.3,18.49,42.79l25.2-.14ZM43.76,130.24c-2.54-19.49-2.47-36.1,0-53.99l-27.68.06c-5.41,18.08-4.89,36.67.28,54.24l27.4-.3ZM96.1,129.66v-53.36s-38.71-.03-38.71-.03c-2.47,18.05-2.62,35.51-.03,53.44l38.74-.05ZM148.35,131.2c2.61-18.32,2.71-36.38.03-54.5h-38.67s0,54.49,0,54.49h38.64ZM189.14,131.09c5.16-18.75,5.04-36.54.04-54.37l-27.91.02c2.02,10.9,2.4,20.69,2.04,31.15-.33,7.99-.94,15.43-1.95,23.36l27.78-.16ZM47.04,143.31l-25.06.11c9.04,18.85,24.21,33.67,43.63,42.39-9.22-13.55-15.12-27.38-18.57-42.5ZM96.76,192.74l.02-49.36-36.08.02c3.46,12.58,8.63,24.79,16.82,35.31,5.24,6.33,11.19,12.01,19.24,14.03ZM127.5,180.89c9.24-11.01,14.46-23.83,18.31-37.49h-36.11s0,49.49,0,49.49c7.25-1.83,12.62-6.27,17.79-11.99ZM184.32,143.48l-25.16-.11c-2.91,15.84-9.81,29.17-18.01,42.37,19.63-9.08,34.04-23.98,43.17-42.26Z"/>
  </g>
</svg>