<?xml version="1.0" encoding="UTF-8"?>
<svg id="Capa_2" data-name="Capa 2" xmlns="http://www.w3.org/2000/svg" viewBox="0 0 206.87 205.82">
  <defs>
    <style>
      .cls-1 {
        fill: #fff;
      }
    </style>
  </defs>
  <g id="Capa_2-2" data-name="Capa 2">
    <path class="cls-1" d="M206.84,85.2c-.07-11.56-.26-23.2-1.59-34.67-3.11-26.97-22.17-45.95-49.17-48.98-11.48-1.29-23.12-1.55-34.68-1.55-21.83.01-43.66.23-65.47.99-11.64.41-22.61,3.96-32.14,11.03C9.29,22.76,2.61,37.77,1.49,55.23c-1.02,15.94-1.03,31.94-1.49,47.95.46,15.97.61,31.96,1.48,47.91.62,11.54,4,22.41,10.99,31.87,10.79,14.6,25.9,21.52,43.47,22.32,21.79,1,90.99.63,103.52-1.18,18.38-2.65,32.18-12.73,40.44-29.65,4.62-9.46,6.3-19.67,6.47-30.09.31-19.72.59-39.44.47-59.16ZM187.57,144.78c-.1,4.84-.72,9.79-1.94,14.47-3.9,14.92-13.83,23.81-28.87,26.51-6.93,1.24-14.08,1.68-21.14,1.7-10.5.03-21.01.03-31.51-.03v-54.91h27.03c2.8,0,5.16-2.1,5.51-4.89l2.08-16.68c.41-3.33-2.17-6.27-5.51-6.27h-29.11v-24.35c0-7.69,6.21-13.92,13.86-13.92h17.32c1.91,0,3.47-1.56,3.47-3.48v-20.87c0-1.91-1.56-3.48-3.47-3.48h-24.25c-19.13,0-34.64,15.58-34.64,34.79v31.31h-20.79c-1.91,0-3.47,1.57-3.47,3.48v20.88c0,1.91,1.56,3.48,3.47,3.48h20.79v54.69c-4.86-.05-9.73-.12-14.59-.2-5.48-.09-11.14-.95-16.37-2.57-15.6-4.84-23.49-16.39-25-32.08-1.11-11.6-1.23-23.32-1.26-34.98-.06-18.76.15-37.53.62-56.28.13-5.39.94-10.95,2.53-16.09,4.84-15.59,16.34-23.58,32.05-25.04,12.36-1.15,77.3-1.02,91.27-.66,5.49.14,11.14.98,16.36,2.61,15.48,4.83,23.33,16.32,24.85,31.89,1.13,11.5,1.24,23.12,1.28,34.69.07,18.76-.19,37.53-.57,56.28Z"/>
  </g>
</svg>