<?xml version="1.0" encoding="UTF-8"?>
<svg id="Capa_2" data-name="Capa 2" xmlns="http://www.w3.org/2000/svg" viewBox="0 0 206.87 205.82">
  <defs>
    <style>
      .cls-1 {
        fill: #fff;
      }
    </style>
  </defs>
  <g id="Capa_1-2" data-name="Capa 1">
    <g>
      <path class="cls-1" d="M0,103.18c.46-16.01.47-32.02,1.49-47.96,1.12-17.46,7.8-32.47,22.3-43.21C33.32,4.95,44.29,1.4,55.93.99,77.74.23,99.57,0,121.4,0c11.57,0,23.21.26,34.68,1.55,27,3.03,46.06,22.01,49.17,48.98,1.32,11.47,1.51,23.11,1.58,34.68.12,19.72-.16,39.44-.47,59.16-.17,10.42-1.85,20.63-6.47,30.09-8.26,16.92-22.07,26.99-40.44,29.65-12.54,1.81-81.73,2.18-103.52,1.18-17.57-.81-32.68-7.72-43.47-22.32-6.99-9.46-10.37-20.33-10.99-31.86-.86-15.95-1.02-31.95-1.48-47.91ZM54.38,19.96c-15.71,1.46-27.21,9.46-32.04,25.04-1.59,5.14-2.4,10.7-2.54,16.09-.47,18.75-.68,37.52-.62,56.28.04,11.67.15,23.39,1.26,34.98,1.51,15.69,9.4,27.24,25,32.08,5.23,1.62,10.89,2.48,16.37,2.57,24.6.4,49.2.52,73.81.45,7.06-.02,14.21-.46,21.15-1.7,15.04-2.69,24.97-11.59,28.86-26.51,1.22-4.68,1.84-9.63,1.94-14.47.39-18.76.64-37.52.58-56.28-.04-11.57-.15-23.2-1.28-34.7-1.52-15.57-9.38-27.06-24.85-31.88-5.23-1.63-10.88-2.47-16.36-2.61-13.97-.36-78.91-.5-91.27.66Z"/>
      <path class="cls-1" d="M156.69,103.14c0,29.27-23.73,53.05-52.94,53.02-29.35-.02-53.07-23.64-53.1-52.86-.03-29.44,23.67-53.19,53.08-53.17,29.26.02,52.96,23.73,52.96,53ZM138.05,103c-.09-18.96-15.62-34.35-34.54-34.24-18.99.11-34.34,15.59-34.25,34.53.09,18.96,15.59,34.33,34.54,34.24,18.97-.09,34.34-15.59,34.25-34.53Z"/>
      <path class="cls-1" d="M158.73,60.44c-6.88-.02-12.37-5.54-12.36-12.43.01-6.8,5.65-12.42,12.44-12.4,6.75.02,12.43,5.74,12.39,12.48-.04,6.82-5.64,12.37-12.47,12.35Z"/>
    </g>
  </g>
</svg>