<?xml version="1.0" encoding="UTF-8"?>
<svg id="Capa_2" data-name="Capa 2" xmlns="http://www.w3.org/2000/svg" xmlns:xlink="http://www.w3.org/1999/xlink" viewBox="0 0 100.61 131.02">
  <defs>
    <style>
      .cls-1 {
        fill: #fdce00;
      }

      .cls-2 {
        fill: #fff;
      }

      .cls-3 {
        fill: #ff5a00;
      }

      .cls-4 {
        fill: #fad69b;
      }

      .cls-5 {
        clip-path: url(#clippath);
      }
    </style>
    <clipPath id="clippath">
      <path class="cls-1" d="M73.53,101.65c0,2.92-.27,6.8-.74,9.94-.49,3.06-1.19,6.91-2.79,9.31-.84,1.18-3.22,4-5.54,5.05-6.09,2.89-8,3.36-14.31,4.44-9.47,1.62-26.71-.35-34.28-1.36-2.14-.29-3.74-2.11-3.74-4.28v-22.72s20.69.58,30.03.14c2.7-.13,4.96-.25,6.78-.38,1.82-.13,2.85-.32,3.08-.57,2.11-2.02.55-12.16-.97-14.23-.15-.25-.93-.48-2.34-.7-1.41-.21-3.1-.4-5.07-.57-6.41-.54-19.63-1.93-25.79-2.11-.63-2.83-.43-7.96-.46-11.02l30.51-5.12,3.26-8.13c-13.14-.31-39.05-.88-39.05-.88v-23.19s39.34-3.08,59.56-2.77c.21,11.08.17,22.1-.11,33.18-6.92,3.63-13.72,7.47-20.4,11.52,5.34,1.35,16.67,6.13,18.25,7.35,4.87,3.77,3.94,11.49,4.1,17.1Z"/>
    </clipPath>
  </defs>
  <g id="Capa_3" data-name="Capa 3">
    <g>
      <g>
        <g>
          <path class="cls-1" d="M73.53,101.65c0,2.92-.27,6.8-.74,9.94-.49,3.06-1.19,6.91-2.79,9.31-.84,1.18-3.22,4-5.54,5.05-6.09,2.89-8,3.36-14.31,4.44-9.47,1.62-26.71-.35-34.28-1.36-2.14-.29-3.74-2.11-3.74-4.28v-22.72s20.69.58,30.03.14c2.7-.13,4.96-.25,6.78-.38,1.82-.13,2.85-.32,3.08-.57,2.11-2.02.55-12.16-.97-14.23-.15-.25-.93-.48-2.34-.7-1.41-.21-3.1-.4-5.07-.57-6.41-.54-19.63-1.93-25.79-2.11-.63-2.83-.43-7.96-.46-11.02l30.51-5.12,3.26-8.13c-13.14-.31-39.05-.88-39.05-.88v-23.19s39.34-3.08,59.56-2.77c.21,11.08.17,22.1-.11,33.18-6.92,3.63-13.72,7.47-20.4,11.52,5.34,1.35,16.67,6.13,18.25,7.35,4.87,3.77,3.94,11.49,4.1,17.1Z"/>
          <g class="cls-5">
            <path class="cls-3" d="M81.61,23.23c-1.72-2.5-5.07-2.51-7.53-2.75-.36-3.22-1.48-6.53-4.05-7.93-2.99-1.63-5.93-1.59-9.06.41-1.15-4.94-4.71-7.39-8.87-8.05-4.07-.65-8.42.71-10.93,4.76-2.81-2.94-5.79-3.65-9.34-3.59-5.6.09-10.42,3.83-10.74,10.04-3.27-1.54-6.19-1.48-8.84.24-2.54,1.65-3.93,4.83-3.6,8.53-3.48.31-6.33,2.8-6.88,6.49-.14.94-.08,1.93.2,2.83.2.65.51,1.25.94,1.76.54,1.15,2.09,2,3.19,2.88,1.06.87,1.29,2.86,1.51,4.14.33,1.91-.16,3.3-1.4,4.76-.92,1.08-2,2.05-2.65,3.33-1.1,2.19-.61,5.13,1.14,6.79,2.69,2.56,7.2,1.58,8.41-1.97,1.01-2.96,1.05-6.46.81-9.57-.09-1.2.13-3.68.85-1.36.42,1.38-.17,2.47,1.06,3.67.65.64,1.51,1.01,2.39,1.17.77.14,1.59.12,2.29-.23,1.29-.64,1.9-2.23,2.03-3.72.04-.44-.09-5.2-.09-5.2,3.84-.83,7.63,3.89,12.57-2.56,2.07,3.05,5.33,4.95,8.94,3.79,1.15-.37,2.21-1.05,3.07-1.93.42-.43.74-1.22,1.18-1.57.74-.58.41-.42,1.39,0,2.45,1.05,4.89.64,6.55-1.66,1.17.48,2.09.95,3.14,1.14-.57,2.08-1.21,4.1-1.68,6.21-.31,1.41-.48,2.9-.13,4.29.84,3.36,5.51,4.49,6.55.59.29-1.09.17-2.25.04-3.37-.2-1.81-.41-3.63-.61-5.44.88.36,1.77.76,2.5,1.4.73.64,1.29,1.55,1.3,2.55.02,1.65-.93,3.2-.96,4.88-.02,1.06.25,2.16.92,2.95.77.91,1.96,1.3,3.11,1.46,1.02.14,2.09.14,3.04-.28,2.38-1.05,3.74-4.49,3.7-7.05,0-.42-.69-4.63-1.29-4.43,1.31-.44,2.85-1.78,3.12-3.32.22-1.25,2.5-4.31,2.5-4.31,0,0-.02,0-.03.01,2.74-2.73,2.39-7.64.23-10.79Z"/>
          </g>
        </g>
        <path class="cls-1" d="M95.71,93.39l-12.31,1.39.19,3.66,12.31-1.39-.19-3.66ZM100.59,72.39c-.05-2.06-.19-4.2-.44-6.4-.24-2.2-.57-4.28-.97-6.24-.41-1.96-.91-3.38-1.51-4.27-.49-.87-1.15-1.46-1.97-1.75-.83-.3-1.69-.49-2.59-.59-1.31-.14-2.66-.15-4.04-.03-1.37.11-2.73.22-4.08.31-.76.1-1.46.54-2.1,1.32-.65.79-1.22,1.77-1.72,2.95-.5,1.18-.93,2.49-1.3,3.92s-.69,2.84-.97,4.22c-.28,1.39-.5,2.67-.66,3.86-.15,1.19-.26,2.11-.33,2.75-.09.87-.04,2.16.15,3.85.19,1.7.5,3.47.91,5.31.42,1.84.9,3.55,1.46,5.14.55,1.59,1.11,2.71,1.68,3.36.43.46.92.76,1.46.91.55.15,1.09.25,1.61.3.64.07,1.42.1,2.36.08.94-.02,1.9-.06,2.9-.13s1.95-.18,2.88-.31c.92-.14,1.66-.32,2.22-.56.78-.27,1.45-.96,2.03-2.08.57-1.11,1.06-2.37,1.48-3.77.42-1.39.74-2.77.96-4.13.23-1.36.38-2.42.46-3.17.13-1.17.17-2.78.12-4.85ZM95.35,70.51c-.1.87-.31,1.83-.63,2.89-.33,1.05-.77,2.03-1.32,2.94-.55.92-1.2,1.66-1.96,2.22-.75.57-1.63.8-2.64.69-1.11-.12-2-.61-2.68-1.48-.68-.87-1.2-1.89-1.56-3.08-.35-1.18-.56-2.43-.64-3.73-.07-1.3-.06-2.45.05-3.44.09-.87.26-1.84.51-2.9s.59-2.07,1.04-3.02c.45-.95,1.04-1.73,1.77-2.33.74-.6,1.6-.84,2.61-.74,1.16.13,2.12.63,2.88,1.51.76.87,1.35,1.9,1.75,3.1.41,1.19.68,2.45.8,3.79.12,1.34.13,2.53.02,3.58Z"/>
      </g>
      <path class="cls-1" d="M84.28,25.72c0,.22-.01.44-.02.65-.12-1.77-.75-3.55-1.77-4.96-1.77-2.46-5.23-2.47-7.77-2.71-.37-3.17-1.53-6.43-4.19-7.81-3.08-1.61-6.11-1.56-9.35.41-1.19-4.86-4.86-7.28-9.16-7.93-4.2-.64-8.69.7-11.28,4.69-2.9-2.9-5.98-3.6-9.64-3.54-5.77.08-10.76,3.78-11.08,9.89-3.38-1.52-6.39-1.46-9.12.23-2.62,1.63-4.07,4.77-3.72,8.41-3.59.3-6.53,2.76-7.1,6.39-.04.27-.07.55-.07.82,0,0-.01,0-.01-.02,0-5.38,2.56-7.76,6.06-8.38-.36-3.9.93-7.88,3.64-9.62,2.84-1.82,5.97-1.88,9.47-.25.34-6.55,5.5-10.5,11.5-10.59,3.79-.06,6.99.68,10,3.78C43.36.91,48.01-.52,52.37.16c4.46.7,8.27,3.29,9.5,8.5,3.36-2.12,6.5-2.16,9.7-.44,2.76,1.48,3.96,4.97,4.34,8.36,2.64.25,8.37.87,8.37,9.14Z"/>
      <g>
        <g>
          <path class="cls-4" d="M82.26,32.04s0,.01-.01.02c.02-.02.03-.03.03-.03t-.02,0ZM74.05,41.79c-.27-.06-.59-.05-.96.06-.42.13-.78.42-1.1.72-.9.83-1.7,1.78-2.35,2.81-.34.54-.66,1.13-.66,1.77,0,1.2,1.43,1.89,2.45,2.05,1.89.31,3.06-1.16,3.61-2.25.61-1.2.76-4.77-.99-5.16ZM60.73,42.78c-1.69.24-1.63,3.13-1.6,4.07.82,1.26,2.75,1.24,3.77.18.24-1.14-.78-4.45-2.17-4.25ZM16.86,39.5c-1.13-.11-1.83,1.06-1.92,2.66-.09,1.63.26,2.59,1.2,2.98.67.28,1.94.22,2.44-.56,1.05-1.64-.31-4.95-1.72-5.08ZM7.19,47.14c-2.09-1.31-4,2.09-3.77,3.98.32,2.74,2.74,4.22,5.52,3.24.73-.26,1.05-.98,1.11-1.46.21-1.6-3.14-1.47-2.86-5.76Z"/>
          <path class="cls-4" d="M80.51,33.22c-.75.35-1.51.49-2.27.49-2.69-.02-5.33-1.99-6.95-4.04-.15-.18-.3-.46-.13-.64-2.4,1.2-4.49,2.31-7.19,2.06-.14-.01-.28-.02-.42-.04-1.33-.18-2.61-.65-3.78-1.32-.4-.23-3.12-1.91-3.12-2.44-.53,1.82-1.16,4.26-3.29,4.62-2.47.42-4.65-1.36-6.3-2.94-.99,1.61-1.8,2.9-2.72,3.46-3.56,2.17-8.3-2.04-12.11-6.3-.23,2.9.05,6.1-2.34,7.69-2.1,1.4-4.87-.49-6.82-2.16-1.23,1.94-2.55,3.48-4.51,3.4-1.82-.08-3.38-1.29-4.94-3.25.34.43-2.38,2.72-2.74,2.96-2.72,1.77-7.32,1.78-9.61-.78t-.02-.02c.56,1.13,2.15,1.97,3.3,2.84,1.09.85,1.32,2.81,1.55,4.07.35,1.88-.16,3.26-1.44,4.7-.95,1.06-2.07,2.02-2.74,3.28-1.13,2.16-.62,5.05,1.18,6.69,2.78,2.52,7.43,1.56,8.68-1.94,1.04-2.92,1.09-6.37.84-9.43-.1-1.18.13-3.63.87-1.34.44,1.35-.17,2.43,1.09,3.61.68.63,1.57,1,2.48,1.15.79.14,1.64.12,2.36-.22,1.33-.63,1.97-2.19,2.1-3.66.04-.43-.09-5.12-.1-5.12,3.96-.82,7.88,3.83,12.99-2.52,2.13,3,5.5,4.87,9.22,3.73,1.19-.36,2.29-1.03,3.17-1.9.43-.42.77-1.21,1.22-1.55.76-.57.43-.42,1.44,0,2.53,1.04,5.04.63,6.75-1.64,1.21.47,2.16.94,3.24,1.12-.58,2.05-1.24,4.04-1.72,6.12-.33,1.39-.5,2.85-.14,4.23.87,3.31,5.69,4.42,6.76.58.3-1.07.17-2.21.04-3.32-.21-1.79-.42-3.57-.63-5.36.91.36,1.83.75,2.58,1.38.75.62,1.33,1.53,1.34,2.5.03,1.63-.96,3.15-.99,4.81-.02,1.04.26,2.13.95,2.91.8.89,2.03,1.27,3.22,1.43,1.05.14,2.15.14,3.13-.28,2.46-1.03,3.86-4.42,3.82-6.94,0-.41-.68-4.37-1.29-4.37,1.34-.45,2.9-1.76,3.19-3.26.22-1.15,2.29-3.87,2.54-4.21-.48.45-1.06.85-1.74,1.16ZM8.94,54.36c-2.78.98-5.2-.5-5.52-3.24-.23-1.89,1.68-5.29,3.77-3.98-.28,4.29,3.07,4.16,2.86,5.76-.06.48-.38,1.2-1.11,1.46ZM18.58,44.58c-.5.78-1.77.84-2.44.56-.94-.39-1.29-1.35-1.2-2.98.09-1.6.79-2.77,1.92-2.66,1.41.13,2.77,3.44,1.72,5.08ZM62.9,47.03c-1.02,1.06-2.95,1.08-3.77-.18-.03-.94-.09-3.83,1.6-4.07,1.39-.2,2.41,3.11,2.17,4.25ZM67,38.05c-.07-.08-.13-.17-.18-.26-.35-.61-.27-1.43-.12-2.14.16-.75.37-1.5.82-2.11.13-.18.26-.34.39-.47h.01c1.17-1.2,2.26-.44,2.74.86h.01c.42,1.17.36,2.79-.6,3.79-.4.42-.91.75-1.48.85-.58.09-1.2-.08-1.59-.52ZM75.04,46.95c-.55,1.09-1.72,2.56-3.61,2.25-1.02-.16-2.45-.85-2.45-2.05,0-.64.32-1.23.66-1.77.65-1.03,1.45-1.98,2.35-2.81.32-.3.68-.59,1.1-.72.37-.11.69-.12.96-.06,1.75.39,1.6,3.96.99,5.16Z"/>
        </g>
        <path class="cls-2" d="M82.28,32.03s-.01,0-.02,0c0,0,0,.01-.01.02-.48.45-1.06.85-1.74,1.16-.75.35-1.51.49-2.27.49-2.69-.02-5.33-1.99-6.95-4.04-.15-.18-.3-.46-.13-.64-2.4,1.2-4.49,2.31-7.19,2.06-.14-.01-.28-.02-.42-.04-1.33-.18-2.61-.65-3.78-1.32-.4-.23-3.12-1.91-3.12-2.44-.53,1.82-1.16,4.26-3.29,4.62-2.47.42-4.65-1.36-6.3-2.94-.99,1.61-1.8,2.9-2.72,3.46-3.56,2.17-8.3-2.04-12.11-6.3-.23,2.9.05,6.1-2.34,7.69-2.1,1.4-4.87-.49-6.82-2.16-1.23,1.94-2.55,3.48-4.51,3.4-1.82-.08-3.38-1.29-4.94-3.25.34.43-2.38,2.72-2.74,2.96-2.72,1.77-7.32,1.78-9.61-.78t-.02-.02c-.44-.5-.76-1.1-.97-1.74-.2-.63-.29-1.29-.27-1.96H.01c0-.28.03-.56.07-.83.57-3.63,3.51-6.09,7.1-6.39-.35-3.64,1.1-6.78,3.72-8.41,2.73-1.69,5.74-1.75,9.12-.23.32-6.11,5.31-9.81,11.08-9.89,3.66-.06,6.74.64,9.64,3.54,2.59-3.99,7.08-5.33,11.28-4.69,4.3.65,7.97,3.07,9.16,7.93,3.24-1.97,6.27-2.02,9.35-.41,2.66,1.38,3.82,4.64,4.19,7.81,2.54.24,6,.25,7.77,2.71,1.02,1.41,1.65,3.19,1.77,4.96.14,2.11-.45,4.2-1.98,5.66Z"/>
        <path class="cls-2" d="M70.07,37.72c-.4.42-.91.75-1.48.85-.58.09-1.2-.08-1.59-.52-.07-.08-.13-.17-.18-.26-.35-.61-.27-1.43-.12-2.14.16-.75.37-1.5.82-2.11.13-.18.26-.34.39-.47h.01c1.17-1.2,2.26-.44,2.74.86h.01c.42,1.17.36,2.79-.6,3.79Z"/>
        <path class="cls-2" d="M75.04,46.95c-.55,1.09-1.72,2.56-3.61,2.25-1.02-.16-2.45-.85-2.45-2.05,0-.64.32-1.23.66-1.77.65-1.03,1.45-1.98,2.35-2.81.32-.3.68-.59,1.1-.72.37-.11.69-.12.96-.06,1.75.39,1.6,3.96.99,5.16Z"/>
        <path class="cls-2" d="M10.05,52.9c-.06.48-.38,1.2-1.11,1.46-2.78.98-5.2-.5-5.52-3.24-.23-1.89,1.68-5.29,3.77-3.98-.28,4.29,3.07,4.16,2.86,5.76Z"/>
        <path class="cls-2" d="M18.58,44.58c-.5.78-1.77.84-2.44.56-.94-.39-1.29-1.35-1.2-2.98.09-1.6.79-2.77,1.92-2.66,1.41.13,2.77,3.44,1.72,5.08Z"/>
        <path class="cls-2" d="M62.9,47.03c-1.02,1.06-2.95,1.08-3.77-.18-.03-.94-.09-3.83,1.6-4.07,1.39-.2,2.41,3.11,2.17,4.25Z"/>
      </g>
    </g>
  </g>
</svg>