<?xml version="1.0" encoding="UTF-8"?>
<svg id="Capa_2" data-name="Capa 2" xmlns="http://www.w3.org/2000/svg" xmlns:xlink="http://www.w3.org/1999/xlink" viewBox="0 0 106.04 134.82">
  <defs>
    <style>
      .cls-1 {
        fill: #fdce00;
      }

      .cls-2 {
        fill: #fff;
      }

      .cls-3 {
        opacity: .8;
      }

      .cls-4 {
        fill: #ff5a00;
      }

      .cls-5 {
        fill: #fad69b;
      }

      .cls-6 {
        clip-path: url(#clippath);
      }
    </style>
    <clipPath id="clippath">
      <path class="cls-1" d="M73.53,101.65c0,2.92-.27,6.8-.74,9.94-.49,3.06-1.19,6.91-2.79,9.31-.84,1.18-3.22,4-5.54,5.05-6.09,2.89-8,3.36-14.31,4.44-9.47,1.62-26.71-.35-34.28-1.36-2.14-.29-3.74-2.11-3.74-4.28v-22.72s20.69.58,30.03.14c2.7-.13,4.96-.25,6.78-.38,1.82-.13,2.85-.32,3.08-.57,2.11-2.02.55-12.16-.97-14.23-.15-.25-.93-.48-2.34-.7-1.41-.21-3.1-.4-5.07-.57-6.41-.54-19.63-1.93-25.79-2.11-.63-2.83-.43-7.96-.46-11.02l30.51-5.12,3.26-8.13c-13.14-.31-39.05-.88-39.05-.88v-23.19s39.34-3.08,59.56-2.77c.21,11.08.17,22.1-.11,33.18-6.92,3.63-13.72,7.47-20.4,11.52,5.34,1.35,16.67,6.13,18.25,7.35,4.87,3.77,3.94,11.49,4.1,17.1Z"/>
    </clipPath>
  </defs>
  <g id="Capa_3" data-name="Capa 3">
    <g>
      <g>
        <g>
          <path class="cls-4" d="M16.86,39.5c-1.12-.11-1.83,1.06-1.92,2.66-.09,1.63.26,2.59,1.21,2.98.67.28,1.93.22,2.44-.56,1.05-1.64-.32-4.95-1.73-5.08ZM60.73,42.78c-1.68.24-1.63,3.13-1.6,4.07.82,1.26,2.75,1.24,3.78.18.24-1.14-.78-4.45-2.18-4.25ZM65.02,49.26c-2.39.16-2.32,66.65,4.32,71.74.2.15.87.64,1.51.05,5.36-4.86-3.41-71.94-5.83-71.79ZM52.43,49.26c-2.39.16-2.32,66.65,4.32,71.74.2.15.87.64,1.52.05,5.36-4.86-3.42-71.94-5.84-71.79ZM42.39,49.25c-2.4.12-6.14,66.6.2,71.76.19.15.83.65,1.51.07,5.64-4.81.72-71.96-1.71-71.83ZM33.36,49.26c-2.42-.15-11.19,66.93-5.83,71.79.64.59,1.31.1,1.51-.05,6.64-5.09,6.71-71.58,4.32-71.74ZM20.77,49.26c-2.41-.15-11.19,66.93-5.83,71.79.65.59,1.31.1,1.51-.05,6.64-5.09,6.71-71.58,4.32-71.74Z"/>
          <path class="cls-4" d="M106,73.38c-.71-24.13-9.04-27.88-19.37-27.88-4.3,0-9.27,4.02-11.76,14.13l-.4-9.03c-.15.09-.31.17-.48.24-.98.42-2.08.42-3.13.28-1.19-.16-2.42-.54-3.22-1.43-.69-.78-.96-1.87-.94-2.91.03-1.66,1.01-3.18.98-4.81-.01-.97-.59-1.88-1.34-2.5-.75-.63-1.67-1.02-2.58-1.38.21,1.79.42,3.57.63,5.36.13,1.11.26,2.25-.04,3.32-1.06,3.84-5.89,2.73-6.76-.58-.36-1.38-.18-2.84.14-4.23.48-2.08,1.14-4.07,1.73-6.12-1.08-.18-2.03-.65-3.24-1.12-1.71,2.27-4.23,2.68-6.76,1.64-1.01-.42-.68-.57-1.44,0-.45.34-.79,1.13-1.22,1.55-.88.87-1.97,1.54-3.16,1.9-3.73,1.14-7.09-.73-9.23-3.73-5.1,6.35-9.02,1.7-12.98,2.52,0,0,.13,4.69.09,5.12-.13,1.47-.76,3.03-2.09,3.66-.73.34-1.58.36-2.37.22-.91-.15-1.8-.52-2.47-1.15-1.27-1.18-.65-2.26-1.09-3.61-.74-2.29-.97.16-.88,1.34.25,3.06.2,6.51-.84,9.43-.21.6-.53,1.13-.92,1.58l-3.2,72.32c0,4.04,3.2,7.31,7.16,7.31h55.89c3.95,0,7.16-3.27,7.16-7.31l-1.45-32.88c2.43,6.14,6.07,9.57,10.21,9.6,10.32.09,20.16-3.76,19.37-30.85ZM16.45,121c-.2.15-.86.64-1.51.05-5.36-4.86,3.42-71.94,5.83-71.79,2.39.16,2.32,66.65-4.32,71.74ZM29.04,121c-.2.15-.87.64-1.51.05-5.36-4.86,3.41-71.94,5.83-71.79,2.39.16,2.32,66.65-4.32,71.74ZM44.1,121.08c-.68.58-1.32.08-1.51-.07-6.34-5.16-2.6-71.64-.2-71.76,2.43-.13,7.35,67.02,1.71,71.83ZM58.27,121.05c-.65.59-1.32.1-1.52-.05-6.64-5.09-6.71-71.58-4.32-71.74,2.42-.15,11.2,66.93,5.84,71.79ZM70.85,121.05c-.64.59-1.31.1-1.51-.05-6.64-5.09-6.71-71.58-4.32-71.74,2.42-.15,11.19,66.93,5.83,71.79ZM83.6,98.44l-.19-3.66,12.31-1.39.19,3.66-12.31,1.39ZM100.47,77.24c-.08.75-.23,1.81-.46,3.17-.22,1.36-.54,2.74-.96,4.13-.42,1.4-.91,2.66-1.48,3.77-.58,1.12-1.25,1.81-2.03,2.08-.56.24-1.3.42-2.22.56-.93.13-1.88.24-2.88.31-1,.07-1.96.11-2.9.13s-1.72,0-2.36-.08c-.52-.05-1.06-.15-1.61-.3-.54-.15-1.03-.45-1.46-.91-.57-.65-1.13-1.77-1.68-3.36-.56-1.59-1.04-3.3-1.46-5.14-.41-1.84-.72-3.61-.91-5.31-.19-1.69-.24-2.98-.15-3.85.07-.64.18-1.56.33-2.75.16-1.19.38-2.47.66-3.86.28-1.38.6-2.79.97-4.22.37-1.43.8-2.74,1.3-3.92.5-1.18,1.07-2.16,1.72-2.95.64-.78,1.34-1.22,2.1-1.32,1.35-.09,2.71-.2,4.08-.31,1.38-.12,2.73-.11,4.04.03.9.1,1.76.29,2.59.59.82.29,1.48.88,1.97,1.75.6.89,1.1,2.31,1.51,4.27.4,1.96.73,4.04.97,6.24.25,2.2.39,4.34.44,6.4.05,2.07.01,3.68-.12,4.85Z"/>
        </g>
        <path class="cls-4" d="M100.59,72.39c-.05-2.06-.19-4.2-.44-6.4-.24-2.2-.57-4.28-.97-6.24-.41-1.96-.91-3.38-1.51-4.27-.49-.87-1.15-1.46-1.97-1.75-.83-.3-1.69-.49-2.59-.59-1.31-.14-2.66-.15-4.04-.03-1.37.11-2.73.22-4.08.31-.76.1-1.46.54-2.1,1.32-.65.79-1.22,1.77-1.72,2.95-.5,1.18-.93,2.49-1.3,3.92-.37,1.43-.69,2.84-.97,4.22-.28,1.39-.5,2.67-.66,3.86-.15,1.19-.26,2.11-.33,2.75-.09.87-.04,2.16.15,3.85.19,1.7.5,3.47.91,5.31.42,1.84.9,3.55,1.46,5.14.55,1.59,1.11,2.71,1.68,3.36.43.46.92.76,1.46.91.55.15,1.09.25,1.61.3.64.07,1.42.1,2.36.08s1.9-.06,2.9-.13c1-.07,1.95-.18,2.88-.31.92-.14,1.66-.32,2.22-.56.78-.27,1.45-.96,2.03-2.08.57-1.11,1.06-2.37,1.48-3.77.42-1.39.74-2.77.96-4.13.23-1.36.38-2.42.46-3.17.13-1.17.17-2.78.12-4.85ZM88.8,79.25h-.05c-1.11-.12-2-.61-2.68-1.48-.68-.87-1.2-1.89-1.56-3.08-.35-1.18-.56-2.43-.64-3.73-.07-1.3-.06-2.45.05-3.44.09-.87.26-1.84.51-2.9s.59-2.07,1.04-3.02c.45-.95,1.04-1.73,1.77-2.33.56-.46,1.2-.7,1.92-.75.22-.02.45-.02.69.01,1.16.13,2.12.63,2.88,1.51.76.87,1.35,1.9,1.75,3.1.41,1.19.68,2.45.8,3.79s.13,2.53.02,3.58c-.1.87-.31,1.83-.63,2.89-.33,1.05-.77,2.03-1.32,2.94-.55.92-1.2,1.66-1.96,2.22-.55.42-1.17.66-1.86.71-.23.01-.48.01-.73-.02ZM83.41,94.78l.19,3.66,12.31-1.39-.19-3.66-12.31,1.39Z"/>
      </g>
      <g>
        <g>
          <path class="cls-1" d="M73.53,101.65c0,2.92-.27,6.8-.74,9.94-.49,3.06-1.19,6.91-2.79,9.31-.84,1.18-3.22,4-5.54,5.05-6.09,2.89-8,3.36-14.31,4.44-9.47,1.62-26.71-.35-34.28-1.36-2.14-.29-3.74-2.11-3.74-4.28v-22.72s20.69.58,30.03.14c2.7-.13,4.96-.25,6.78-.38,1.82-.13,2.85-.32,3.08-.57,2.11-2.02.55-12.16-.97-14.23-.15-.25-.93-.48-2.34-.7-1.41-.21-3.1-.4-5.07-.57-6.41-.54-19.63-1.93-25.79-2.11-.63-2.83-.43-7.96-.46-11.02l30.51-5.12,3.26-8.13c-13.14-.31-39.05-.88-39.05-.88v-23.19s39.34-3.08,59.56-2.77c.21,11.08.17,22.1-.11,33.18-6.92,3.63-13.72,7.47-20.4,11.52,5.34,1.35,16.67,6.13,18.25,7.35,4.87,3.77,3.94,11.49,4.1,17.1Z"/>
          <g class="cls-6">
            <path class="cls-4" d="M81.61,23.23c-1.72-2.5-5.07-2.51-7.53-2.75-.36-3.22-1.48-6.53-4.05-7.93-2.99-1.63-5.93-1.59-9.06.41-1.15-4.94-4.71-7.39-8.87-8.05-4.07-.65-8.42.71-10.93,4.76-2.81-2.94-5.79-3.65-9.34-3.59-5.6.09-10.42,3.83-10.74,10.04-3.27-1.54-6.19-1.48-8.84.24-2.54,1.65-3.93,4.83-3.6,8.53-3.48.31-6.33,2.8-6.88,6.49-.14.94-.08,1.93.2,2.83.2.65.51,1.25.94,1.76.54,1.15,2.09,2,3.19,2.88,1.06.87,1.29,2.86,1.51,4.14.33,1.91-.16,3.3-1.4,4.76-.92,1.08-2,2.05-2.65,3.33-1.1,2.19-.61,5.13,1.14,6.79,2.69,2.56,7.2,1.58,8.41-1.97,1.01-2.96,1.05-6.46.81-9.57-.09-1.2.13-3.68.85-1.36.42,1.38-.17,2.47,1.06,3.67.65.64,1.51,1.01,2.39,1.17.77.14,1.59.12,2.29-.23,1.29-.64,1.9-2.23,2.03-3.72.04-.44-.09-5.2-.09-5.2,3.84-.83,7.63,3.89,12.57-2.56,2.07,3.05,5.33,4.95,8.94,3.79,1.15-.37,2.21-1.05,3.07-1.93.42-.43.74-1.22,1.18-1.57.74-.58.41-.42,1.39,0,2.45,1.05,4.89.64,6.55-1.66,1.17.48,2.09.95,3.14,1.14-.57,2.08-1.21,4.1-1.68,6.21-.31,1.41-.48,2.9-.13,4.29.84,3.36,5.51,4.49,6.55.59.29-1.09.17-2.25.04-3.37-.2-1.81-.41-3.63-.61-5.44.88.36,1.77.76,2.5,1.4.73.64,1.29,1.55,1.3,2.55.02,1.65-.93,3.2-.96,4.88-.02,1.06.25,2.16.92,2.95.77.91,1.96,1.3,3.11,1.46,1.02.14,2.09.14,3.04-.28,2.38-1.05,3.74-4.49,3.7-7.05,0-.42-.69-4.63-1.29-4.43,1.31-.44,2.85-1.78,3.12-3.32.22-1.25,2.5-4.31,2.5-4.31,0,0-.02,0-.03.01,2.74-2.73,2.39-7.64.23-10.79Z"/>
          </g>
        </g>
        <path class="cls-1" d="M100.59,72.39c-.05-2.06-.19-4.2-.44-6.4-.24-2.2-.57-4.28-.97-6.24-.41-1.96-.91-3.38-1.51-4.27-.49-.87-1.15-1.46-1.97-1.75-.83-.3-1.69-.49-2.59-.59-1.31-.14-2.66-.15-4.04-.03-1.37.11-2.73.22-4.08.31-.76.1-1.46.54-2.1,1.32-.65.79-1.22,1.77-1.72,2.95-.5,1.18-.93,2.49-1.3,3.92-.37,1.43-.69,2.84-.97,4.22-.28,1.39-.5,2.67-.66,3.86-.15,1.19-.26,2.11-.33,2.75-.09.87-.04,2.16.15,3.85.19,1.7.5,3.47.91,5.31.42,1.84.9,3.55,1.46,5.14.55,1.59,1.11,2.71,1.68,3.36.43.46.92.76,1.46.91.55.15,1.09.25,1.61.3.64.07,1.42.1,2.36.08s1.9-.06,2.9-.13c1-.07,1.95-.18,2.88-.31.92-.14,1.66-.32,2.22-.56.78-.27,1.45-.96,2.03-2.08.57-1.11,1.06-2.37,1.48-3.77.42-1.39.74-2.77.96-4.13.23-1.36.38-2.42.46-3.17.13-1.17.17-2.78.12-4.85ZM95.35,70.51c-.1.87-.31,1.83-.63,2.89-.33,1.05-.77,2.03-1.32,2.94-.55.92-1.2,1.66-1.96,2.22-.56.43-1.2.67-1.91.71-.23.01-.48.01-.73-.02-1.11-.12-2-.61-2.68-1.48-.68-.87-1.2-1.89-1.56-3.08-.35-1.18-.56-2.43-.64-3.73-.07-1.3-.06-2.45.05-3.44.09-.87.26-1.84.51-2.9s.59-2.07,1.04-3.02c.45-.95,1.04-1.73,1.77-2.33.55-.45,1.17-.69,1.87-.75.22-.02.45-.02.69.01h.05c1.16.13,2.12.63,2.88,1.51.76.87,1.35,1.9,1.75,3.1.41,1.19.68,2.45.8,3.79s.13,2.53.02,3.58ZM95.72,93.39l-12.31,1.39.19,3.66,12.31-1.39-.19-3.66Z"/>
      </g>
      <g>
        <path class="cls-1" d="M71.11,29.32h-.53c.19-.09.38-.19.58-.29-.07.08-.08.19-.05.29Z"/>
        <path class="cls-1" d="M84.28,25.72c0,.22,0,.44-.02.65-.12-1.77-.75-3.55-1.77-4.96-1.77-2.46-5.23-2.47-7.77-2.71-.37-3.17-1.53-6.43-4.18-7.81-3.09-1.61-6.12-1.56-9.36.41-1.18-4.86-4.86-7.28-9.15-7.93-4.21-.64-8.69.7-11.29,4.69-2.9-2.9-5.98-3.6-9.63-3.54-5.78.08-10.76,3.78-11.09,9.89-3.37-1.52-6.39-1.46-9.12.23-2.62,1.63-4.06,4.77-3.72,8.41-3.59.3-6.53,2.76-7.1,6.39-.04.27-.07.55-.07.82,0,0-.01,0-.01-.02,0-5.38,2.56-7.76,6.06-8.38-.36-3.9.93-7.88,3.65-9.62,2.83-1.82,5.96-1.88,9.46-.25.34-6.55,5.51-10.5,11.5-10.59,3.8-.06,6.99.68,10,3.78C43.36.91,48.01-.52,52.37.16c4.46.7,8.27,3.29,9.5,8.5,3.36-2.12,6.51-2.16,9.71-.44,2.75,1.48,3.95,4.97,4.34,8.36,2.63.25,8.36.87,8.36,9.14Z"/>
      </g>
      <g>
        <g>
          <path class="cls-5" d="M71.16,29.03c-.2.1-.39.2-.58.29h.53c-.03-.1-.02-.21.05-.29ZM60.73,42.78c-1.68.24-1.63,3.13-1.6,4.07.82,1.26,2.75,1.24,3.78.18.24-1.14-.78-4.45-2.18-4.25ZM16.86,39.5c-1.12-.11-1.83,1.06-1.92,2.66-.09,1.63.26,2.59,1.21,2.98.67.28,1.93.22,2.44-.56,1.05-1.64-.32-4.95-1.73-5.08ZM7.19,47.14c-2.09-1.31-3.99,2.09-3.77,3.98.32,2.74,2.75,4.22,5.52,3.24.73-.26,1.05-.98,1.11-1.46.22-1.6-3.13-1.47-2.86-5.76Z"/>
          <path class="cls-5" d="M82.25,32.06c-.48.45-1.06.85-1.74,1.16-.74.34-1.5.49-2.26.49-1.62-.01-3.23-.73-4.6-1.76-.91-.66-1.72-1.47-2.36-2.28-.08-.1-.16-.22-.18-.35h-.53c-2.16,1.08-4.13,2-6.61,1.77-.14-.01-.28-.02-.42-.04-1.33-.18-2.61-.65-3.77-1.32-.1-.06-.36-.21-.68-.41-.94-.6-2.45-1.64-2.45-2.03-.19.64-.38,1.36-.66,2.03-.49,1.25-1.24,2.36-2.62,2.59-2.3.39-4.34-1.11-5.94-2.59-.12-.12-.25-.23-.37-.35-.07.12-.14.24-.21.35-.89,1.45-1.65,2.59-2.5,3.11-2.64,1.61-5.93-.28-9-3.11-1.08-.98-2.13-2.09-3.12-3.19-.09,1.05-.1,2.15-.2,3.19-.18,1.82-.62,3.49-2.14,4.5-2.1,1.4-4.87-.49-6.82-2.16-1.23,1.94-2.54,3.48-4.5,3.4-1.82-.08-3.39-1.29-4.94-3.25.23.29-.95,1.44-1.84,2.21-.43.38-.79.67-.91.75-2.71,1.77-7.32,1.78-9.61-.78t-.02-.02c.56,1.13,2.16,1.97,3.3,2.84,1.09.85,1.33,2.81,1.56,4.07.34,1.88-.17,3.26-1.45,4.7-.95,1.06-2.07,2.02-2.74,3.28-1.13,2.16-.62,5.05,1.18,6.69,2.3,2.09,5.89,1.79,7.76-.36.39-.45.71-.98.92-1.58,1.04-2.92,1.09-6.37.84-9.43-.09-1.18.14-3.63.88-1.34.44,1.35-.18,2.43,1.09,3.61.67.63,1.56,1,2.47,1.15.79.14,1.64.12,2.37-.22,1.33-.63,1.96-2.19,2.09-3.66.04-.43-.09-5.12-.09-5.12,3.96-.82,7.88,3.83,12.98-2.52,2.14,3,5.5,4.87,9.23,3.73,1.19-.36,2.28-1.03,3.16-1.9.43-.42.77-1.21,1.22-1.55.76-.57.43-.42,1.44,0,2.53,1.04,5.05.63,6.76-1.64,1.21.47,2.16.94,3.24,1.12-.59,2.05-1.25,4.04-1.73,6.12-.32,1.39-.5,2.85-.14,4.23.87,3.31,5.7,4.42,6.76.58.3-1.07.17-2.21.04-3.32-.21-1.79-.42-3.57-.63-5.36.91.36,1.83.75,2.58,1.38.75.62,1.33,1.53,1.34,2.5.03,1.63-.95,3.15-.98,4.81-.02,1.04.25,2.13.94,2.91.8.89,2.03,1.27,3.22,1.43,1.05.14,2.15.14,3.13-.28.17-.07.33-.15.48-.24,2.16-1.25,3.38-4.35,3.35-6.7-.01-.41-.68-4.37-1.29-4.37,1.34-.45,2.9-1.75,3.18-3.26.22-1.15,2.29-3.87,2.55-4.21h-.01ZM10.05,52.9c-.06.48-.38,1.2-1.11,1.46-2.77.98-5.2-.5-5.52-3.24-.22-1.89,1.68-5.29,3.77-3.98-.27,4.29,3.08,4.16,2.86,5.76ZM18.59,44.58c-.51.78-1.77.84-2.44.56-.95-.39-1.3-1.35-1.21-2.98.09-1.6.8-2.77,1.92-2.66,1.41.13,2.78,3.44,1.73,5.08ZM62.91,47.03c-1.03,1.06-2.96,1.08-3.78-.18-.03-.94-.08-3.83,1.6-4.07,1.4-.2,2.42,3.11,2.18,4.25ZM67,38.05c-.07-.08-.13-.17-.18-.26-.35-.61-.27-1.43-.12-2.14.16-.75.37-1.5.82-2.11.13-.18.26-.34.39-.47h.01c1.17-1.2,2.26-.44,2.74.86.44,1.17.37,2.79-.58,3.79-.4.42-.92.75-1.49.85-.57.09-1.2-.08-1.59-.52ZM75.04,46.95c-.17.33-.39.7-.68,1.04h0c-.66.79-1.62,1.42-2.93,1.21-1.02-.16-2.45-.85-2.45-2.05.01-.64.32-1.23.66-1.77.66-1.03,1.45-1.98,2.35-2.81.33-.3.68-.59,1.11-.72.36-.11.68-.12.95-.06.01,0,.02,0,.03.01,1.73.42,1.57,3.96.96,5.15Z"/>
        </g>
        <path class="cls-2" d="M82.25,32.06c-.48.45-1.06.85-1.74,1.16-.74.34-1.5.49-2.26.49-1.62-.01-3.23-.73-4.6-1.76-.91-.66-1.72-1.47-2.36-2.28-.08-.1-.16-.22-.18-.35-.03-.1-.02-.21.05-.29-.2.1-.39.2-.58.29-2.16,1.08-4.13,2-6.61,1.77-.14-.01-.28-.02-.42-.04-1.33-.18-2.61-.65-3.77-1.32-.1-.06-.36-.21-.68-.41-.94-.6-2.45-1.64-2.45-2.03-.19.64-.38,1.36-.66,2.03-.49,1.25-1.24,2.36-2.62,2.59-2.3.39-4.34-1.11-5.94-2.59-.12-.12-.25-.23-.37-.35-.07.12-.14.24-.21.35-.89,1.45-1.65,2.59-2.5,3.11-2.64,1.61-5.93-.28-9-3.11-1.08-.98-2.13-2.09-3.12-3.19-.09,1.05-.1,2.15-.2,3.19-.18,1.82-.62,3.49-2.14,4.5-2.1,1.4-4.87-.49-6.82-2.16-1.23,1.94-2.54,3.48-4.5,3.4-1.82-.08-3.39-1.29-4.94-3.25.23.29-.95,1.44-1.84,2.21-.43.38-.79.67-.91.75-2.71,1.77-7.32,1.78-9.61-.78t-.02-.02c-.44-.5-.76-1.1-.97-1.74-.2-.63-.29-1.29-.27-1.96H.01c0-.28.03-.56.07-.83.57-3.63,3.51-6.09,7.1-6.39-.34-3.64,1.1-6.78,3.72-8.41,2.73-1.69,5.75-1.75,9.12-.23.33-6.11,5.31-9.81,11.09-9.89,3.65-.06,6.73.64,9.63,3.54,2.6-3.99,7.08-5.33,11.29-4.69,4.29.65,7.97,3.07,9.15,7.93,3.24-1.97,6.27-2.02,9.36-.41,2.65,1.38,3.81,4.64,4.18,7.81,2.54.24,6,.25,7.77,2.71,1.02,1.41,1.65,3.19,1.77,4.96.14,2.12-.46,4.22-2.01,5.69Z"/>
        <path class="cls-2" d="M70.08,37.72c-.4.42-.92.75-1.49.85-.57.09-1.2-.08-1.59-.52-.07-.08-.13-.17-.18-.26-.35-.61-.27-1.43-.12-2.14.16-.75.37-1.5.82-2.11.13-.18.26-.34.39-.47h.01c1.17-1.2,2.26-.44,2.74.86.44,1.17.37,2.79-.58,3.79Z"/>
        <path class="cls-2" d="M75.04,46.95c-.17.33-.39.7-.68,1.04h0c-.66.79-1.62,1.42-2.93,1.21-1.02-.16-2.45-.85-2.45-2.05.01-.64.32-1.23.66-1.77.66-1.03,1.45-1.98,2.35-2.81.33-.3.68-.59,1.11-.72.36-.11.68-.12.95-.06.01,0,.02,0,.03.01,1.73.42,1.57,3.96.96,5.15Z"/>
        <path class="cls-2" d="M10.05,52.9c-.06.48-.38,1.2-1.11,1.46-2.77.98-5.2-.5-5.52-3.24-.22-1.89,1.68-5.29,3.77-3.98-.27,4.29,3.08,4.16,2.86,5.76Z"/>
        <path class="cls-2" d="M18.59,44.58c-.51.78-1.77.84-2.44.56-.95-.39-1.3-1.35-1.21-2.98.09-1.6.8-2.77,1.92-2.66,1.41.13,2.78,3.44,1.73,5.08Z"/>
        <path class="cls-2" d="M62.91,47.03c-1.03,1.06-2.96,1.08-3.78-.18-.03-.94-.08-3.83,1.6-4.07,1.4-.2,2.42,3.11,2.18,4.25Z"/>
      </g>
      <g>
        <g class="cls-3">
          <path class="cls-2" d="M16.45,121c-.2.15-.86.64-1.51.05-5.36-4.86,3.42-71.94,5.83-71.79,2.39.16,2.32,66.65-4.32,71.74Z"/>
        </g>
        <g class="cls-3">
          <path class="cls-2" d="M29.04,121c-.2.15-.87.64-1.51.05-5.36-4.86,3.41-71.94,5.83-71.79,2.39.16,2.32,66.65-4.32,71.74Z"/>
        </g>
        <g class="cls-3">
          <path class="cls-2" d="M70.85,121.05c-.64.59-1.31.1-1.51-.05-6.64-5.09-6.71-71.58-4.32-71.74,2.42-.15,11.19,66.93,5.83,71.79Z"/>
        </g>
        <g class="cls-3">
          <path class="cls-2" d="M58.27,121.05c-.65.59-1.32.1-1.52-.05-6.64-5.09-6.71-71.58-4.32-71.74,2.42-.15,11.2,66.93,5.84,71.79Z"/>
        </g>
        <g class="cls-3">
          <path class="cls-2" d="M44.1,121.08c-.68.58-1.32.08-1.51-.07-6.34-5.16-2.6-71.64-.2-71.76,2.43-.13,7.35,67.02,1.71,71.83Z"/>
        </g>
      </g>
    </g>
  </g>
</svg>