<?xml version="1.0" encoding="UTF-8"?>
<svg id="Capa_2" data-name="Capa 2" xmlns="http://www.w3.org/2000/svg" xmlns:xlink="http://www.w3.org/1999/xlink" viewBox="0 0 304.9 138.63">
  <defs>
    <style>
      .cls-1 {
        letter-spacing: -.02em;
      }

      .cls-2 {
        fill: #fdce00;
      }

      .cls-3, .cls-4, .cls-5 {
        fill: #fff;
      }

      .cls-6 {
        font-size: 42px;
      }

      .cls-7 {
        letter-spacing: -.02em;
      }

      .cls-8 {
        letter-spacing: .02em;
      }

      .cls-9 {
        letter-spacing: -.03em;
      }

      .cls-10 {
        letter-spacing: -.05em;
      }

      .cls-11 {
        letter-spacing: -.05em;
      }

      .cls-12 {
        letter-spacing: -.03em;
      }

      .cls-13 {
        letter-spacing: 0em;
      }

      .cls-14 {
        letter-spacing: 0em;
      }

      .cls-15 {
        font-size: 43px;
      }

      .cls-16 {
        font-size: 30px;
      }

      .cls-17 {
        letter-spacing: -.04em;
      }

      .cls-18 {
        letter-spacing: -.03em;
      }

      .cls-19 {
        letter-spacing: 0em;
      }

      .cls-20 {
        letter-spacing: -.02em;
      }

      .cls-21 {
        letter-spacing: -.02em;
      }

      .cls-22 {
        letter-spacing: -.02em;
      }

      .cls-23 {
        letter-spacing: -.03em;
      }

      .cls-24 {
        fill: #ff5a00;
      }

      .cls-25 {
        letter-spacing: -.02em;
      }

      .cls-26 {
        letter-spacing: 0em;
      }

      .cls-4 {
        font-size: 18px;
      }

      .cls-4, .cls-5 {
        font-family: Slackey-Regular, Slackey;
      }

      .cls-27 {
        fill: #fad69b;
      }

      .cls-28 {
        letter-spacing: -.05em;
      }

      .cls-29 {
        letter-spacing: -.02em;
      }

      .cls-30 {
        letter-spacing: -.02em;
      }

      .cls-31 {
        letter-spacing: -.03em;
      }

      .cls-32 {
        letter-spacing: -.02em;
      }

      .cls-33 {
        clip-path: url(#clippath);
      }
    </style>
    <clipPath id="clippath">
      <path class="cls-2" d="M73.53,101.65c0,2.92-.27,6.8-.74,9.94-.49,3.06-1.19,6.91-2.79,9.31-.84,1.18-3.22,4-5.54,5.05-6.09,2.89-8,3.36-14.31,4.44-9.47,1.62-26.71-.35-34.28-1.36-2.14-.29-3.74-2.11-3.74-4.28v-22.72s20.69.58,30.03.14c2.7-.13,4.96-.25,6.78-.38,1.82-.13,2.85-.32,3.08-.57,2.11-2.02.55-12.16-.97-14.23-.15-.25-.93-.48-2.34-.7-1.41-.21-3.1-.4-5.07-.57-6.41-.54-19.63-1.93-25.79-2.11-.63-2.83-.43-7.96-.46-11.02l30.51-5.12,3.26-8.13c-13.14-.31-39.05-.88-39.05-.88v-23.19s39.34-3.08,59.56-2.77c.21,11.08.17,22.1-.11,33.18-6.92,3.63-13.72,7.47-20.4,11.52,5.34,1.35,16.67,6.13,18.25,7.35,4.87,3.77,3.94,11.49,4.1,17.1Z"/>
    </clipPath>
  </defs>
  <g id="Capa_3" data-name="Capa 3">
    <g>
      <g>
        <text class="cls-5" transform="translate(120.63 56.35) scale(.9 1)"><tspan class="cls-15"><tspan class="cls-19" x="0" y="0">F</tspan><tspan class="cls-17" x="27.97" y="0">I</tspan><tspan class="cls-25" x="48.34" y="0">E</tspan><tspan class="cls-10" x="75.16" y="0">S</tspan><tspan class="cls-11" x="108.85" y="0">T</tspan><tspan class="cls-23" x="135.32" y="0">A</tspan></tspan><tspan class="cls-6"><tspan class="cls-1" x="0" y="40">C</tspan><tspan class="cls-12" x="29.35" y="40">E</tspan><tspan class="cls-31" x="55.04" y="40">R</tspan><tspan class="cls-32" x="88.33" y="40">V</tspan><tspan class="cls-26" x="116.84" y="40">E</tspan><tspan class="cls-28" x="143.36" y="40">Z</tspan><tspan class="cls-20" x="173.31" y="40">A</tspan></tspan><tspan class="cls-16"><tspan class="cls-22" x="0" y="72">S</tspan><tspan class="cls-29" x="24.6" y="72">a</tspan><tspan class="cls-21" x="47.86" y="72">n</tspan><tspan class="cls-8" x="67.43" y="72">t</tspan><tspan class="cls-30" x="82.34" y="72">a </tspan><tspan class="cls-18" x="116.68" y="72">A</tspan><tspan class="cls-7" x="137.95" y="72">n</tspan><tspan class="cls-9" x="157.53" y="72">i</tspan><tspan class="cls-8" x="166.08" y="72">t</tspan><tspan class="cls-30" x="180.99" y="72">a</tspan></tspan></text>
        <text class="cls-4" transform="translate(278.9 40.3) scale(.9 1)"><tspan class="cls-13" x="0" y="0">D</tspan><tspan x="14.91" y="0">E</tspan><tspan class="cls-14" x="1.47" y="16">L</tspan><tspan x="11.72" y="16">A</tspan></text>
      </g>
      <g>
        <g>
          <g>
            <path class="cls-2" d="M73.53,101.65c0,2.92-.27,6.8-.74,9.94-.49,3.06-1.19,6.91-2.79,9.31-.84,1.18-3.22,4-5.54,5.05-6.09,2.89-8,3.36-14.31,4.44-9.47,1.62-26.71-.35-34.28-1.36-2.14-.29-3.74-2.11-3.74-4.28v-22.72s20.69.58,30.03.14c2.7-.13,4.96-.25,6.78-.38,1.82-.13,2.85-.32,3.08-.57,2.11-2.02.55-12.16-.97-14.23-.15-.25-.93-.48-2.34-.7-1.41-.21-3.1-.4-5.07-.57-6.41-.54-19.63-1.93-25.79-2.11-.63-2.83-.43-7.96-.46-11.02l30.51-5.12,3.26-8.13c-13.14-.31-39.05-.88-39.05-.88v-23.19s39.34-3.08,59.56-2.77c.21,11.08.17,22.1-.11,33.18-6.92,3.63-13.72,7.47-20.4,11.52,5.34,1.35,16.67,6.13,18.25,7.35,4.87,3.77,3.94,11.49,4.1,17.1Z"/>
            <g class="cls-33">
              <path class="cls-24" d="M81.61,23.23c-1.72-2.5-5.07-2.51-7.53-2.75-.36-3.22-1.48-6.53-4.05-7.93-2.99-1.63-5.93-1.59-9.06.41-1.15-4.94-4.71-7.39-8.87-8.05-4.07-.65-8.42.71-10.93,4.76-2.81-2.94-5.79-3.65-9.34-3.59-5.6.09-10.42,3.83-10.74,10.04-3.27-1.54-6.19-1.48-8.84.24-2.54,1.65-3.93,4.83-3.6,8.53-3.48.31-6.33,2.8-6.88,6.49-.14.94-.08,1.93.2,2.83.2.65.51,1.25.94,1.76.54,1.15,2.09,2,3.19,2.88,1.06.87,1.29,2.86,1.51,4.14.33,1.91-.16,3.3-1.4,4.76-.92,1.08-2,2.05-2.65,3.33-1.1,2.19-.61,5.13,1.14,6.79,2.69,2.56,7.2,1.58,8.41-1.97,1.01-2.96,1.05-6.46.81-9.57-.09-1.2.13-3.68.85-1.36.42,1.38-.17,2.47,1.06,3.67.65.64,1.51,1.01,2.39,1.17.77.14,1.59.12,2.29-.23,1.29-.64,1.9-2.23,2.03-3.72.04-.44-.09-5.2-.09-5.2,3.84-.83,7.63,3.89,12.57-2.56,2.07,3.05,5.33,4.95,8.94,3.79,1.15-.37,2.21-1.05,3.07-1.93.42-.43.74-1.22,1.18-1.57.74-.58.41-.42,1.39,0,2.45,1.05,4.89.64,6.55-1.66,1.17.48,2.09.95,3.14,1.14-.57,2.08-1.21,4.1-1.68,6.21-.31,1.41-.48,2.9-.13,4.29.84,3.36,5.51,4.49,6.55.59.29-1.09.17-2.25.04-3.37-.2-1.81-.41-3.63-.61-5.44.88.36,1.77.76,2.5,1.4.73.64,1.29,1.55,1.3,2.55.02,1.65-.93,3.2-.96,4.88-.02,1.06.25,2.16.92,2.95.77.91,1.96,1.3,3.11,1.46,1.02.14,2.09.14,3.04-.28,2.38-1.05,3.74-4.49,3.7-7.05,0-.42-.69-4.63-1.29-4.43,1.31-.44,2.85-1.78,3.12-3.32.22-1.25,2.5-4.31,2.5-4.31,0,0-.02,0-.03.01,2.74-2.73,2.39-7.64.23-10.79Z"/>
            </g>
          </g>
          <path class="cls-2" d="M95.71,93.39l-12.31,1.39.19,3.66,12.31-1.39-.19-3.66ZM100.59,72.39c-.05-2.06-.19-4.2-.44-6.4-.24-2.2-.57-4.28-.97-6.24-.41-1.96-.91-3.38-1.51-4.27-.49-.87-1.15-1.46-1.97-1.75-.83-.3-1.69-.49-2.59-.59-1.31-.14-2.66-.15-4.04-.03-1.37.11-2.73.22-4.08.31-.76.1-1.46.54-2.1,1.32-.65.79-1.22,1.77-1.72,2.95-.5,1.18-.93,2.49-1.3,3.92s-.69,2.84-.97,4.22c-.28,1.39-.5,2.67-.66,3.86-.15,1.19-.26,2.11-.33,2.75-.09.87-.04,2.16.15,3.85.19,1.7.5,3.47.91,5.31.42,1.84.9,3.55,1.46,5.14.55,1.59,1.11,2.71,1.68,3.36.43.46.92.76,1.46.91.55.15,1.09.25,1.61.3.64.07,1.42.1,2.36.08.94-.02,1.9-.06,2.9-.13s1.95-.18,2.88-.31c.92-.14,1.66-.32,2.22-.56.78-.27,1.45-.96,2.03-2.08.57-1.11,1.06-2.37,1.48-3.77.42-1.39.74-2.77.96-4.13.23-1.36.38-2.42.46-3.17.13-1.17.17-2.78.12-4.85ZM95.35,70.51c-.1.87-.31,1.83-.63,2.89-.33,1.05-.77,2.03-1.32,2.94-.55.92-1.2,1.66-1.96,2.22-.75.57-1.63.8-2.64.69-1.11-.12-2-.61-2.68-1.48-.68-.87-1.2-1.89-1.56-3.08-.35-1.18-.56-2.43-.64-3.73-.07-1.3-.06-2.45.05-3.44.09-.87.26-1.84.51-2.9s.59-2.07,1.04-3.02c.45-.95,1.04-1.73,1.77-2.33.74-.6,1.6-.84,2.61-.74,1.16.13,2.12.63,2.88,1.51.76.87,1.35,1.9,1.75,3.1.41,1.19.68,2.45.8,3.79.12,1.34.13,2.53.02,3.58Z"/>
        </g>
        <path class="cls-2" d="M75.91,16.58c-.38-3.39-1.58-6.88-4.34-8.36-3.2-1.72-6.35-1.68-9.7.44-1.23-5.21-5.04-7.8-9.5-8.49-4.36-.68-9.01.75-11.7,5.02-3.01-3.1-6.2-3.85-10-3.79-5.99.09-11.16,4.04-11.5,10.59-3.5-1.63-6.63-1.57-9.47.25-2.72,1.74-4.01,5.73-3.65,9.63C2.56,22.48,0,24.86,0,30.24,0,31.25,25.41,20.71,42.11,21.24c15.13.48,22.29,15.95,35.63,12.6,2.94-.74,6.53-3.27,6.53-8.13,0-8.26-5.73-8.88-8.36-9.13Z"/>
        <g>
          <path class="cls-27" d="M43.38,15.07C13.85,15.19,1.43,34.69,1.25,33.97c.56,1.13,2.15,1.97,3.29,2.84,1.09.86,1.33,2.82,1.56,4.07.34,1.88-.17,3.25-1.45,4.69-.95,1.07-2.07,2.02-2.74,3.28-1.14,2.16-.63,5.05,1.18,6.69,2.78,2.52,7.43,1.56,8.68-1.94,1.04-2.92,1.09-6.37.84-9.43-.1-1.18.13-3.63.88-1.34.44,1.36-.18,2.43,1.09,3.61.68.63,1.56,1,2.47,1.15.79.14,1.64.12,2.37-.22,1.33-.63,1.96-2.19,2.09-3.66.04-.43-.09-5.12-.09-5.12,3.96-.82,7.88,3.83,12.98-2.52,2.14,3,5.5,4.87,9.23,3.73,1.19-.36,2.28-1.03,3.17-1.9.43-.42.76-1.21,1.22-1.55.76-.57.42-.42,1.44,0,2.53,1.04,5.05.63,6.76-1.64,1.21.47,2.16.94,3.24,1.12-.59,2.05-1.25,4.04-1.73,6.12-.32,1.39-.5,2.85-.14,4.23.87,3.31,5.69,4.42,6.76.58.3-1.07.17-2.21.04-3.32-.21-1.79-.42-3.57-.63-5.36.91.36,1.83.75,2.58,1.38s1.33,1.53,1.34,2.51c.02,1.63-.96,3.15-.99,4.8-.02,1.04.26,2.13.95,2.91.8.9,2.03,1.28,3.22,1.44,1.05.14,2.16.13,3.13-.28,2.46-1.03,3.86-4.42,3.82-6.94,0-.42-.71-4.56-1.33-4.36,1.35-.43,2.94-1.75,3.22-3.27.23-1.23,2.58-4.24,2.58-4.25-1.46,1.37-15.67-17.05-38.9-16.96Z"/>
          <path class="cls-3" d="M.28,32.23c.21.64.53,1.23.97,1.74,2.27,2.58,6.9,2.58,9.62.8.36-.24,3.09-2.53,2.75-2.95,1.56,1.95,3.12,3.17,4.94,3.25,1.96.08,3.28-1.46,4.51-3.4,1.95,1.67,4.72,3.56,6.82,2.16,2.39-1.59,2.1-4.79,2.34-7.69,3.81,4.26,8.55,8.47,12.11,6.3.92-.56,1.73-1.85,2.71-3.46,1.65,1.58,3.83,3.36,6.31,2.94,2.15-.36,2.77-2.83,3.3-4.67-.14.49,2.7,2.24,3.11,2.48,1.17.67,2.44,1.14,3.78,1.32,2.91.4,5.09-.76,7.6-2.02-.16.18-.02.46.13.64,2.08,2.61,5.83,5.12,9.23,3.55,4.66-2.15,4.59-8.18,1.98-11.81-1.77-2.46-5.24-2.47-7.78-2.71-.37-3.17-1.53-6.43-4.18-7.81-3.08-1.61-6.12-1.57-9.35.41-1.19-4.86-4.86-7.28-9.16-7.93-4.2-.64-8.69.7-11.28,4.69-2.9-2.9-5.98-3.59-9.64-3.54-5.78.09-10.76,3.78-11.08,9.89-3.38-1.52-6.39-1.46-9.12.23s-4.06,4.76-3.71,8.4c-3.59.3-6.53,2.76-7.11,6.4-.15.93-.08,1.9.2,2.79Z"/>
          <path class="cls-3" d="M66.82,37.79c.05.09.11.18.19.26.38.43,1.01.61,1.59.51s1.09-.42,1.49-.84c2.12-2.24-.15-7.5-2.56-4.19-.45.62-.66,1.37-.82,2.11-.15.71-.23,1.53.12,2.15Z"/>
          <path class="cls-3" d="M74.05,41.79c-.27-.06-.59-.05-.96.06-.42.13-.78.42-1.11.72-.9.83-1.69,1.78-2.35,2.81-.34.54-.65,1.13-.66,1.76,0,1.2,1.43,1.89,2.45,2.05,1.89.31,3.05-1.16,3.61-2.26.61-1.2.76-4.76-.99-5.16Z"/>
          <path class="cls-3" d="M8.94,54.36c.73-.26,1.05-.98,1.11-1.46.21-1.6-3.14-1.47-2.86-5.76-2.1-1.3-4,2.1-3.77,3.98.33,2.75,2.75,4.23,5.52,3.24Z"/>
          <path class="cls-3" d="M14.94,42.16c-.09,1.63.25,2.58,1.2,2.98.67.28,1.94.22,2.44-.56,1.05-1.63-.31-4.94-1.72-5.08-1.13-.11-1.83,1.06-1.92,2.66Z"/>
          <path class="cls-3" d="M59.13,46.85c.82,1.26,2.75,1.24,3.77.18.24-1.15-.78-4.45-2.17-4.25-1.69.24-1.63,3.13-1.6,4.07Z"/>
        </g>
      </g>
    </g>
  </g>
</svg>