<?xml version="1.0" encoding="UTF-8"?>
<svg id="Capa_2" data-name="Capa 2" xmlns="http://www.w3.org/2000/svg" xmlns:xlink="http://www.w3.org/1999/xlink" viewBox="0 0 303.43 131.02">
  <defs>
    <style>
      .cls-1 {
        fill: #fdce00;
      }

      .cls-2 {
        fill: #fff;
      }

      .cls-3 {
        fill: #ff5a00;
      }

      .cls-4 {
        fill: #fad69b;
      }

      .cls-5 {
        clip-path: url(#clippath);
      }
    </style>
    <clipPath id="clippath">
      <path class="cls-1" d="M73.53,101.65c0,2.92-.27,6.8-.74,9.94-.49,3.06-1.19,6.91-2.79,9.31-.84,1.18-3.22,4-5.54,5.05-6.09,2.89-8,3.36-14.31,4.44-9.47,1.62-26.71-.35-34.28-1.36-2.14-.29-3.74-2.11-3.74-4.28v-22.72s20.69.58,30.03.14c2.7-.13,4.96-.25,6.78-.38,1.82-.13,2.85-.32,3.08-.57,2.11-2.02.55-12.16-.97-14.23-.15-.25-.93-.48-2.34-.7-1.41-.21-3.1-.4-5.07-.57-6.41-.54-19.63-1.93-25.79-2.11-.63-2.83-.43-7.96-.46-11.02l30.51-5.12,3.26-8.13c-13.14-.31-39.05-.88-39.05-.88v-23.19s39.34-3.08,59.56-2.77c.21,11.08.17,22.1-.11,33.18-6.92,3.63-13.72,7.47-20.4,11.52,5.34,1.35,16.67,6.13,18.25,7.35,4.87,3.77,3.94,11.49,4.1,17.1Z"/>
    </clipPath>
  </defs>
  <g id="Capa_3" data-name="Capa 3">
    <g>
      <g>
        <g>
          <path class="cls-2" d="M144.74,34.21c-2.19.14-4.35.25-6.48.34-2.13.08-4.28.24-6.44.46l.3,3.61,6.27.46,1.06,4.2c-1.13.28-2.27.5-3.42.65-1.15.15-2.29.36-3.42.61.25,2.1.43,4.19.53,6.28.1,2.09.15,4.18.15,6.28l-9.94.38c.13-3.28.2-6.53.23-9.76.02-3.23.04-6.49.04-9.76v-12.18c1.46-.03,2.9-.06,4.33-.1,1.42-.04,2.87-.06,4.33-.06,1.96,0,3.93.05,5.9.15,1.96.1,3.94.2,5.93.31.15,1.34.3,2.69.43,4.05.14,1.36.21,2.72.21,4.09Z"/>
          <path class="cls-2" d="M163.19,25.52c-.13,1.71-.18,3.41-.15,5.1.03,1.69.01,3.38-.04,5.06l-4.19-.17c-.03.98-.04,1.95-.06,2.9-.01.95-.02,1.92-.02,2.9,0,1.18,0,2.33.02,3.46.01,1.13.03,2.29.06,3.46l3.85.08c-.05.81-.08,1.64-.08,2.48v2.52c0,.7.02,1.4.06,2.1.04.7.12,1.39.25,2.06l-13.57.25c0-1.37-.01-2.72-.04-4.05-.03-1.33-.08-2.68-.15-4.05l2.46-.04c-.13-2.63-.27-5.23-.43-7.81-.16-2.58-.33-5.17-.51-7.77l-3.59-.5c-.05-1.18-.09-2.34-.13-3.51-.04-1.16-.08-2.33-.13-3.51,2.75-.11,5.47-.24,8.18-.4,2.71-.15,5.45-.34,8.22-.57Z"/>
          <path class="cls-2" d="M188.17,30.77c-2.47.14-4.92.29-7.35.44-2.43.15-4.88.34-7.35.57l-.08,3.32,9.75-.63c.13.95.22,1.89.28,2.81s.09,1.86.09,2.81c0,.39,0,.8-.02,1.22-.01.42-.02.83-.02,1.22l-9.07,1.81.57,5.21c1.91-.14,3.82-.34,5.73-.61,1.9-.27,3.82-.5,5.76-.69.18,1.4.35,2.81.53,4.22.18,1.41.43,2.79.76,4.14-3.58-.03-7.13-.02-10.66.02s-7.08.06-10.66.06c.08-3.28.16-6.54.26-9.78.1-3.25.15-6.52.15-9.83v-.8c0-1.9-.03-3.8-.08-5.69-.05-1.89-.1-3.8-.15-5.73,1.99.03,3.97.04,5.95.02,1.98-.01,3.97-.02,5.99-.02,1.54,0,3.07.04,4.59.1,1.52.07,3.06.15,4.59.23l.42,5.58Z"/>
          <path class="cls-2" d="M219.42,48.95c0,1.34-.29,2.43-.87,3.25-.58.83-1.4,1.49-2.46,1.99-.88.42-1.99.75-3.33.99-1.34.24-2.72.41-4.16.5-1.44.1-2.85.16-4.23.19-1.39.03-2.54.04-3.48.04-1.59,0-3.16-.03-4.71-.08-1.55-.06-3.12-.14-4.71-.25.08-2.86,0-5.68-.23-8.48,1.89.06,3.77.1,5.65.15s3.76.09,5.65.15c.73.03,1.47.06,2.21.08.74.03,1.49.04,2.25.04h.57c.25,0,.52-.01.79-.04.28-.03.54-.07.78-.13.24-.06.42-.14.55-.25.1-.11.16-.27.19-.48s.04-.4.04-.57c0-.31-.04-.68-.11-1.11-.08-.43-.19-.79-.34-1.07-.03-.03-.11-.06-.25-.08-.14-.03-.3-.05-.47-.06-.18-.01-.34-.03-.49-.04-.15-.01-.24-.02-.26-.02-1.61-.14-3.22-.24-4.82-.29-1.6-.06-3.21-.15-4.82-.29-.73-.08-1.48-.17-2.25-.25s-1.48-.24-2.13-.46c-.63-.2-1.17-.64-1.61-1.32-.44-.69-.79-1.47-1.06-2.35s-.45-1.77-.57-2.67c-.11-.9-.17-1.65-.17-2.27,0-1.01.09-1.97.26-2.88.18-.91.46-1.76.85-2.54.39-.78.89-1.48,1.49-2.08.6-.6,1.35-1.1,2.23-1.49,1.51-.64,3.13-1.09,4.86-1.34s3.38-.38,4.97-.38c1.86,0,3.7.13,5.52.38,1.81.25,3.63.57,5.44.97-.03.81-.04,1.62-.06,2.41s-.02,1.6-.02,2.41.04,1.63.11,2.46c.08.83.15,1.65.23,2.46-2.39.06-4.78.1-7.16.15-2.38.04-4.78.12-7.2.23-.3,0-.71.01-1.23.04-.52.03-1.01.06-1.49.1-.48.04-1.07.09-1.78.15-.13.31-.2.62-.23.94-.03.32-.04.65-.04.99,0,.17,0,.38.02.63s.07.45.17.59c.02.03.24.07.64.13.4.06.85.11,1.34.17.49.06.96.11,1.4.17.44.06.71.08.81.08.83.08,1.81.18,2.93.29,1.12.11,2.27.24,3.44.38,1.17.14,2.3.31,3.38.52,1.08.21,2.03.46,2.83.73.73.28,1.4.72,2.02,1.32.62.6,1.15,1.3,1.61,2.1.45.8.81,1.64,1.08,2.52.26.88.4,1.74.4,2.58Z"/>
          <path class="cls-2" d="M242.93,31.91v2.94l-7.29.42c-.1,1.62-.18,3.23-.23,4.83-.05,1.6-.08,3.19-.08,4.79,0,1.96-.04,3.91-.13,5.86-.09,1.95-.2,3.88-.32,5.82-.91.06-1.81.1-2.72.15s-1.81.06-2.72.06c-.33,0-.65,0-.96-.02-.32-.01-.62-.02-.93-.02.05-1.71.09-3.41.13-5.1.04-1.69.06-3.38.06-5.06s-.04-3.37-.11-5.06c-.08-1.69-.16-3.39-.26-5.1-.73.03-1.47.06-2.21.08-.74.03-1.49.04-2.25.04h-1.27c-.42,0-.84-.01-1.27-.04-.08-2.07-.13-4.13-.15-6.17-.03-2.04-.05-4.09-.08-6.13,3.78.08,7.53.2,11.26.36,3.73.15,7.47.29,11.22.4.1,1.2.18,2.37.23,3.51s.08,2.29.08,3.46Z"/>
          <path class="cls-2" d="M269.74,56.22l-5.74.97c-.4-1.43-.81-2.85-1.21-4.26-.4-1.41-.79-2.83-1.17-4.26l-9.3.38-1.17,5.58h-5.82c.35-4.76.72-9.49,1.1-14.19s.74-9.42,1.1-14.15c1.81-.34,3.62-.62,5.42-.84,1.8-.22,3.62-.34,5.46-.34,2.24,0,4.48.04,6.73.13.4,2.91.8,5.82,1.19,8.71.39,2.9.8,5.8,1.23,8.71.3,2.3.64,4.56,1,6.8.37,2.24.76,4.49,1.19,6.76ZM260.29,42.95c-.03-.25-.09-.72-.19-1.41-.1-.69-.21-1.41-.34-2.18-.13-.77-.27-1.47-.43-2.1s-.32-1-.47-1.11c-.05-.03-.17-.06-.36-.08-.19-.03-.39-.06-.6-.08-.21-.03-.42-.04-.62-.04h-.93c-.21,0-.44,0-.68.02-.24.01-.47.05-.68.1-.21.06-.36.13-.43.21-.05.03-.11.21-.19.55-.08.34-.17.75-.28,1.24-.11.49-.23,1.02-.34,1.57-.11.56-.22,1.09-.32,1.6-.1.5-.18.94-.25,1.3-.06.36-.11.57-.13.63l7.26-.21Z"/>
          <path class="cls-2" d="M146.73,86.62l-.04,6.4c-1.13.25-2.25.48-3.36.7-1.11.22-2.23.41-3.36.57-1.18.16-2.36.31-3.54.45-1.18.14-2.36.21-3.54.21-.35,0-.85-.01-1.51-.04-.67-.03-1.35-.08-2.07-.16s-1.39-.18-2.03-.31c-.64-.12-1.11-.28-1.4-.47-.27-.19-.53-.42-.78-.68-.25-.26-.47-.53-.67-.8-.52-.71-.95-1.49-1.29-2.34-.34-.85-.62-1.72-.81-2.62-.2-.9-.34-1.82-.42-2.75-.09-.93-.13-1.85-.13-2.75,0-1.09.05-2.23.17-3.4.11-1.18.29-2.34.54-3.49s.57-2.26.98-3.32.9-2.05,1.5-2.95c.17-.25.39-.55.66-.9.27-.35.54-.62.81-.78.66-.41,1.41-.75,2.23-1.03.82-.27,1.68-.49,2.57-.64.89-.15,1.77-.26,2.64-.33.87-.07,1.68-.1,2.42-.1,1.4,0,2.81.09,4.21.27,1.4.18,2.77.49,4.1.92-.05.74-.09,1.48-.11,2.24-.03.75-.04,1.5-.04,2.24,0,1.78.04,3.57.11,5.37-1.11-.46-2.26-.8-3.47-1s-2.4-.31-3.58-.31c-.25,0-.6.02-1.07.06s-1,.1-1.59.16c-.59.07-1.2.16-1.83.27-.63.11-1.21.25-1.75.41s-1.01.36-1.42.57c-.41.22-.67.45-.79.7-.1.22-.18.53-.24.92-.06.4-.11.81-.15,1.25-.04.44-.06.86-.07,1.27-.01.41-.02.74-.02.98s.02.74.07,1.48c.05.74.11,1.52.18,2.36.07.83.17,1.59.28,2.28.11.68.23,1.08.35,1.19.12.08.33.13.61.14.28.01.47.02.57.02,1.21,0,2.5-.07,3.88-.21,1.38-.14,2.77-.32,4.19-.55,1.42-.23,2.81-.48,4.19-.74,1.38-.26,2.66-.51,3.84-.76Z"/>
          <path class="cls-2" d="M170.52,71.37c-2.41.14-4.81.28-7.18.43-2.38.15-4.77.34-7.18.55l-.07,3.24,9.52-.62c.12.93.22,1.85.28,2.75s.09,1.82.09,2.75c0,.38,0,.78-.02,1.19-.01.41-.02.81-.02,1.19l-8.86,1.76.55,5.09c1.87-.14,3.73-.33,5.59-.59,1.86-.26,3.73-.49,5.63-.68.17,1.37.34,2.74.52,4.12.17,1.38.42,2.73.74,4.04-3.5-.03-6.96-.02-10.41.02s-6.92.06-10.41.06c.07-3.2.16-6.38.26-9.56.1-3.17.15-6.37.15-9.6v-.78c0-1.86-.03-3.71-.07-5.56-.05-1.85-.1-3.71-.15-5.6,1.94.03,3.88.03,5.81.02,1.93-.01,3.88-.02,5.85-.02,1.5,0,3,.03,4.48.1,1.49.07,2.98.14,4.49.23l.41,5.46Z"/>
          <path class="cls-2" d="M199.44,75.71c0,2.24-.62,4.01-1.85,5.29-1.23,1.29-2.85,1.98-4.87,2.09,2.44,4.51,4.56,9.13,6.39,13.86l-10.78.29c-.2-2.21-.49-4.25-.89-6.11-.39-1.86-.95-3.81-1.66-5.87-.81.06-1.62.12-2.42.21-.8.08-1.59.15-2.38.21l.18,9.31c-1.4.08-2.8.12-4.21.12-.71,0-1.41-.01-2.08-.04-.68-.03-1.36-.08-2.05-.16.17-2.52.33-5.02.48-7.53s.23-5,.26-7.49c.07-4.43.18-8.86.33-13.29,2.31-.14,4.62-.29,6.92-.45s4.61-.25,6.92-.25c.59,0,1.23.01,1.92.04.69.03,1.38.1,2.09.23s1.38.29,2.03.51c.65.22,1.24.51,1.75.86,1.25.88,2.22,2.04,2.9,3.51.68,1.46,1.01,3.01,1.01,4.66ZM190.87,75.06c0-.22,0-.52-.02-.9-.01-.38-.04-.77-.09-1.17-.05-.4-.12-.77-.22-1.11-.1-.34-.23-.59-.41-.76-.12-.11-.33-.19-.63-.25-.29-.05-.61-.1-.94-.14-.33-.04-.65-.07-.96-.08-.31-.01-.52-.02-.65-.02-.98,0-1.95.06-2.9.16-.95.11-1.89.25-2.82.41l1,7.96c.54.14,1.11.23,1.7.29.59.06,1.17.08,1.74.08.25,0,.61-.01,1.09-.04.48-.03.97-.08,1.48-.16.5-.08.97-.2,1.4-.35.43-.15.73-.35.9-.59.07-.11.13-.32.18-.64.05-.31.08-.64.09-.98.01-.34.02-.68.04-1,.01-.33.02-.56.02-.7Z"/>
          <path class="cls-2" d="M225.81,64.56c-.98,5.33-2,10.61-3.05,15.83-1.05,5.22-2.12,10.47-3.23,15.75l-11.81.21c-.62-2.95-1.24-5.9-1.86-8.84-.63-2.94-1.33-5.87-2.12-8.8-.57-2.21-1.15-4.4-1.75-6.56-.6-2.16-1.22-4.33-1.86-6.52.86.11,1.73.21,2.6.29.87.08,1.74.12,2.6.12h.55c.17,0,.36-.03.55-.08.98,3.45,2,6.83,3.06,10.15,1.06,3.32,2.14,6.68,3.25,10.07.74-1.97,1.46-3.94,2.16-5.93.7-1.98,1.41-3.97,2.12-5.97.05-.14.16-.48.33-1.03.17-.55.38-1.18.61-1.91.23-.72.48-1.49.74-2.3.26-.81.49-1.55.7-2.24.21-.68.45-1.48.72-2.38.27.06.54.08.79.08h.79c.71.03,1.4.04,2.07.04h2.03Z"/>
          <path class="cls-2" d="M249.26,71.37c-2.41.14-4.81.28-7.18.43-2.38.15-4.77.34-7.18.55l-.07,3.24,9.52-.62c.12.93.22,1.85.28,2.75s.09,1.82.09,2.75c0,.38,0,.78-.02,1.19-.01.41-.02.81-.02,1.19l-8.86,1.76.55,5.09c1.87-.14,3.73-.33,5.59-.59,1.86-.26,3.73-.49,5.63-.68.17,1.37.34,2.74.52,4.12.17,1.38.42,2.73.74,4.04-3.5-.03-6.96-.02-10.41.02s-6.92.06-10.41.06c.07-3.2.16-6.38.26-9.56.1-3.17.15-6.37.15-9.6v-.78c0-1.86-.03-3.71-.07-5.56-.05-1.85-.1-3.71-.15-5.6,1.94.03,3.88.03,5.81.02,1.93-.01,3.88-.02,5.85-.02,1.5,0,3,.03,4.48.1,1.49.07,2.98.14,4.49.23l.41,5.46Z"/>
          <path class="cls-2" d="M276.64,75.96c-1.21,1.15-2.43,2.26-3.67,3.32-1.24,1.07-2.53,2.08-3.86,3.04l-8.93,6.6c2.61-.11,5.21-.23,7.81-.37,2.6-.14,5.21-.21,7.84-.21l-.11,6.77c-3.47.47-6.94.79-10.41.98-2.17.14-4.31.29-6.44.45s-4.25.34-6.37.53c-.15-1.31-.26-2.62-.33-3.92-.07-1.3-.25-2.6-.52-3.92,2.76-2.9,5.51-5.76,8.27-8.57,2.76-2.82,5.59-5.6,8.49-8.37-1.35.03-2.69.03-4,.02-1.32-.01-2.64-.02-3.97-.02-1.48,0-2.94.03-4.39.1-1.45.07-2.92.14-4.39.23l-.29-6.36h12.77c1.94,0,3.88.02,5.79.06,1.92.04,3.85.09,5.8.14.27,1.59.46,3.17.55,4.74.1,1.57.22,3.15.37,4.74Z"/>
          <path class="cls-2" d="M303.3,96.22l-5.61.94c-.39-1.39-.79-2.78-1.18-4.16-.39-1.38-.78-2.77-1.14-4.16l-9.08.37-1.14,5.46h-5.68c.34-4.65.7-9.27,1.07-13.86s.73-9.2,1.07-13.82c1.77-.33,3.54-.6,5.3-.82,1.76-.22,3.54-.33,5.33-.33,2.19,0,4.38.04,6.57.12.39,2.84.78,5.68,1.16,8.51.38,2.83.78,5.67,1.2,8.51.29,2.24.62,4.46.98,6.64.36,2.19.74,4.39,1.16,6.6ZM294.07,83.26c-.02-.25-.09-.7-.18-1.37-.1-.67-.21-1.38-.33-2.13-.12-.75-.26-1.44-.42-2.05-.16-.62-.31-.98-.46-1.09-.05-.03-.17-.05-.35-.08-.18-.03-.38-.05-.59-.08-.21-.03-.41-.04-.61-.04h-.9c-.21,0-.43,0-.66.02-.23.01-.46.05-.67.1-.21.06-.35.12-.42.21-.05.03-.11.21-.18.53-.07.33-.17.73-.28,1.21-.11.48-.22.99-.33,1.54-.11.55-.22,1.07-.31,1.56-.1.49-.18.92-.24,1.27-.06.36-.1.56-.13.62l7.09-.21Z"/>
          <path class="cls-2" d="M142.35,123.19c0,.94-.2,1.69-.61,2.27-.4.58-.98,1.04-1.71,1.39-.62.29-1.39.52-2.32.69-.93.17-1.9.28-2.9.35-1,.07-1.99.11-2.95.13-.97.02-1.78.03-2.43.03-1.11,0-2.2-.02-3.28-.06-1.08-.04-2.17-.1-3.28-.18.05-1.99,0-3.96-.16-5.92,1.32.04,2.63.07,3.94.1,1.31.03,2.62.06,3.94.1.51.02,1.02.04,1.54.06.52.02,1.04.03,1.57.03h.4c.18,0,.36,0,.55-.03.19-.02.37-.05.54-.09.17-.04.29-.1.38-.18.07-.08.11-.19.13-.34s.03-.28.03-.4c0-.21-.03-.47-.08-.78-.05-.3-.13-.55-.24-.75-.02-.02-.08-.04-.17-.06-.1-.02-.21-.03-.33-.04-.12,0-.24-.02-.34-.03-.11,0-.17-.01-.18-.01-1.12-.1-2.25-.17-3.36-.21-1.12-.04-2.24-.11-3.36-.21-.51-.06-1.03-.12-1.57-.18s-1.03-.17-1.49-.32c-.44-.14-.81-.44-1.12-.92-.31-.48-.55-1.03-.74-1.64-.19-.62-.32-1.24-.4-1.86-.08-.62-.12-1.15-.12-1.58,0-.7.06-1.37.18-2.01.12-.63.32-1.23.59-1.77.27-.55.62-1.03,1.04-1.45.42-.42.94-.77,1.56-1.04,1.05-.45,2.18-.76,3.39-.94s2.36-.26,3.47-.26c1.3,0,2.58.09,3.85.26s2.53.4,3.8.67c-.02.57-.03,1.13-.04,1.68s-.01,1.12-.01,1.68.03,1.14.08,1.71c.05.58.11,1.15.16,1.71-1.67.04-3.34.07-5,.1-1.66.03-3.34.08-5.02.16-.21,0-.5.01-.86.03-.36.02-.71.04-1.04.07s-.75.06-1.24.1c-.09.22-.14.43-.16.66-.02.22-.03.45-.03.69,0,.12,0,.26.01.44,0,.18.05.31.12.41.02.02.17.05.45.09.28.04.59.08.94.12.34.04.67.08.98.12.31.04.5.06.57.06.58.06,1.26.13,2.04.21.78.08,1.58.17,2.4.26.82.1,1.6.22,2.36.37s1.42.32,1.98.51c.51.2.98.5,1.41.92.43.42.8.91,1.12,1.46s.57,1.14.75,1.76c.19.62.28,1.22.28,1.8Z"/>
          <path class="cls-2" d="M162.67,115.13c0,1.64-.05,3.27-.16,4.89-.11,1.62-.21,3.24-.32,4.86-1.97.2-3.93.36-5.88.5-1.95.14-3.91.21-5.88.21-.18,0-.5,0-.98-.01-.47,0-.98-.03-1.5-.06s-1.03-.07-1.5-.12c-.47-.05-.79-.12-.95-.22-.58-.35-.98-.8-1.21-1.33-.23-.54-.34-1.15-.34-1.83,0-.23,0-.55.03-.94.02-.39.05-.8.11-1.23.05-.43.12-.83.21-1.2.09-.37.19-.64.32-.82.16-.23.52-.43,1.08-.6.56-.17,1.23-.3,2.02-.4.78-.1,1.63-.18,2.53-.23s1.77-.1,2.6-.13,1.56-.04,2.21-.04h1.4c.05-.43.08-.85.08-1.26v-.31c0-.17,0-.27-.03-.31-.05-.12-.22-.21-.5-.29-.28-.08-.63-.14-1.04-.18-.41-.04-.86-.07-1.35-.1s-.95-.04-1.41-.04h-1.98c-1.11,0-2.21.02-3.32.07-1.11.05-2.21.09-3.32.13.07-.74.13-1.49.17-2.26s.05-1.51.01-2.26c1.28-.25,2.57-.43,3.86-.54,1.29-.11,2.6-.16,3.92-.16.47,0,.99,0,1.56.01.56.01,1.12.03,1.69.06s1.12.07,1.67.13c.55.06,1.07.14,1.54.23.49.1.98.27,1.46.53.48.25.94.57,1.36.94.42.37.79.8,1.11,1.27.32.48.54.99.69,1.54.02.06.03.16.04.29,0,.14.01.29.01.45v.75ZM156.79,122.02v-3.75c-.51-.02-1.02-.03-1.53-.04-.51,0-1.02-.01-1.53-.01-.11,0-.4,0-.88.01-.48.01-1,.03-1.56.07-.55.04-1.06.09-1.52.15s-.72.15-.79.26c-.09.16-.14.32-.17.48-.03.17-.04.34-.04.51,0,.14,0,.32.03.56s.05.48.09.73c.04.25.09.49.14.7.05.22.12.37.21.47.07.1.19.17.36.22.17.05.35.09.54.12s.39.05.58.06c.19.01.34.01.45.01.42,0,.87-.02,1.36-.06.48-.04.97-.08,1.48-.13.5-.05.99-.11,1.46-.18.47-.07.91-.13,1.32-.19Z"/>
          <path class="cls-2" d="M180.44,119.64v1.6c0,.54-.02,1.07-.05,1.6l-5.88.41c.07-1.02.13-2.02.17-3.02.04-1,.07-2.01.07-3.05v-.5c0-.23,0-.48-.03-.75s-.04-.51-.05-.75-.04-.4-.05-.5c-.09-.27-.18-.51-.28-.7-.1-.2-.21-.35-.34-.47-.13-.12-.29-.2-.49-.25-.19-.05-.43-.07-.71-.07-.21,0-.48.02-.8.06-.33.04-.66.1-.99.18-.33.08-.65.18-.95.29s-.51.25-.63.41l-.05,8.64c-.04-.08-.14-.12-.3-.12h-.36c-.53,0-1.07.02-1.63.07-.56.05-1.11.11-1.63.19-.23-2.3-.43-4.6-.61-6.88s-.38-4.58-.61-6.88c.35-.02.7-.03,1.05-.04.35,0,.7-.01,1.05-.01.46,0,.92.01,1.38.04.46.03.93.05,1.38.07l.18,2.26c.49-.9,1.16-1.65,2-2.26.84-.61,1.75-.91,2.72-.91.49,0,1,.03,1.53.09s1.03.18,1.52.35c.48.18.94.42,1.37.73.43.31.79.71,1.09,1.2.14.23.26.58.36,1.04.1.46.18.98.25,1.55.07.58.13,1.19.17,1.83s.08,1.26.09,1.85.03,1.12.04,1.6c0,.48.01.84.01,1.1Z"/>
          <path class="cls-2" d="M195.5,123.16l-.45,5.16c-.56.04-1.12.07-1.69.1s-1.12.04-1.69.04c-.3,0-.69-.01-1.19-.03-.49-.02-1-.05-1.53-.1s-1.03-.12-1.5-.21-.85-.2-1.13-.34c-.42-.21-.77-.5-1.04-.85-.27-.35-.5-.74-.67-1.16-.18-.42-.32-.87-.42-1.35-.11-.48-.18-.95-.24-1.42-.05-.45-.09-.93-.12-1.45-.03-.52-.04-1.05-.05-1.6,0-.55-.01-1.08-.01-1.6v-2.33h-1.63c.07-.88.11-1.75.12-2.61,0-.86.05-1.73.12-2.61l1.58.06v-4.34c1,.22,2,.33,2.99.34.99.01,1.99.05,2.99.13l-.05,4.48,2.21.15c0,.14,0,.26.01.38s.01.24.01.38c0,.55-.04,1.08-.12,1.6-.08.52-.18,1.04-.3,1.57h-1.92c-.04.9-.06,1.8-.08,2.7-.02.9-.03,1.8-.03,2.7,0,.43.01.82.04,1.16.03.34.1.63.21.86.11.23.3.41.57.53s.63.18,1.11.18c.65,0,1.3-.05,1.95-.15.65-.1,1.3-.22,1.95-.38Z"/>
          <path class="cls-2" d="M214.65,115.13c0,1.64-.05,3.27-.16,4.89-.11,1.62-.21,3.24-.32,4.86-1.97.2-3.93.36-5.88.5-1.95.14-3.91.21-5.88.21-.18,0-.5,0-.98-.01-.47,0-.98-.03-1.5-.06s-1.03-.07-1.5-.12c-.47-.05-.79-.12-.95-.22-.58-.35-.98-.8-1.21-1.33-.23-.54-.34-1.15-.34-1.83,0-.23,0-.55.03-.94.02-.39.05-.8.11-1.23.05-.43.12-.83.21-1.2.09-.37.19-.64.32-.82.16-.23.52-.43,1.08-.6.56-.17,1.23-.3,2.02-.4.78-.1,1.63-.18,2.53-.23s1.77-.1,2.6-.13,1.56-.04,2.21-.04h1.4c.05-.43.08-.85.08-1.26v-.31c0-.17,0-.27-.03-.31-.05-.12-.22-.21-.5-.29-.28-.08-.63-.14-1.04-.18-.41-.04-.86-.07-1.35-.1s-.95-.04-1.41-.04h-1.98c-1.11,0-2.21.02-3.32.07-1.11.05-2.21.09-3.32.13.07-.74.13-1.49.17-2.26s.05-1.51.01-2.26c1.28-.25,2.57-.43,3.86-.54,1.29-.11,2.6-.16,3.92-.16.47,0,.99,0,1.56.01.56.01,1.12.03,1.69.06s1.12.07,1.67.13c.55.06,1.07.14,1.54.23.49.1.98.27,1.46.53.48.25.94.57,1.36.94.42.37.79.8,1.11,1.27.32.48.54.99.69,1.54.02.06.03.16.04.29,0,.14.01.29.01.45v.75ZM208.77,122.02v-3.75c-.51-.02-1.02-.03-1.53-.04-.51,0-1.02-.01-1.53-.01-.11,0-.4,0-.88.01-.48.01-1,.03-1.56.07-.55.04-1.06.09-1.52.15s-.72.15-.79.26c-.09.16-.14.32-.17.48-.03.17-.04.34-.04.51,0,.14,0,.32.03.56s.05.48.09.73c.04.25.09.49.14.7.05.22.12.37.21.47.07.1.19.17.36.22.17.05.35.09.54.12s.39.05.58.06c.19.01.34.01.45.01.42,0,.87-.02,1.36-.06.48-.04.97-.08,1.48-.13.5-.05.99-.11,1.46-.18.47-.07.91-.13,1.32-.19Z"/>
          <path class="cls-2" d="M244.7,128.26l-4.01.67c-.28-1-.56-1.99-.84-2.97-.28-.99-.55-1.98-.82-2.97l-6.49.26-.82,3.9h-4.06c.25-3.32.5-6.62.76-9.9s.52-6.57.76-9.87c1.27-.23,2.53-.43,3.78-.59,1.26-.16,2.53-.23,3.81-.23,1.56,0,3.13.03,4.69.09.28,2.03.56,4.06.83,6.08.27,2.02.56,4.05.86,6.08.21,1.6.44,3.18.7,4.75.25,1.56.53,3.13.83,4.72ZM238.11,119c-.02-.18-.06-.5-.13-.98-.07-.48-.15-.99-.24-1.52-.09-.54-.19-1.03-.3-1.46s-.22-.7-.33-.78c-.04-.02-.12-.04-.25-.06-.13-.02-.27-.04-.42-.06-.15-.02-.29-.03-.43-.03h-.65c-.15,0-.31,0-.47.01-.17.01-.33.03-.47.07-.15.04-.25.09-.3.15-.04.02-.08.15-.13.38s-.12.52-.2.86c-.08.34-.16.71-.24,1.1-.08.39-.15.76-.22,1.11s-.13.65-.17.91c-.04.25-.08.4-.09.44l5.06-.15Z"/>
          <path class="cls-2" d="M261.52,119.64v1.6c0,.54-.02,1.07-.05,1.6l-5.88.41c.07-1.02.13-2.02.17-3.02.04-1,.07-2.01.07-3.05v-.5c0-.23,0-.48-.03-.75s-.04-.51-.05-.75-.04-.4-.05-.5c-.09-.27-.18-.51-.28-.7-.1-.2-.21-.35-.34-.47-.13-.12-.29-.2-.49-.25-.19-.05-.43-.07-.71-.07-.21,0-.48.02-.8.06-.33.04-.66.1-.99.18-.33.08-.65.18-.95.29s-.51.25-.63.41l-.05,8.64c-.04-.08-.14-.12-.3-.12h-.36c-.53,0-1.07.02-1.63.07-.56.05-1.11.11-1.63.19-.23-2.3-.43-4.6-.61-6.88s-.38-4.58-.61-6.88c.35-.02.7-.03,1.05-.04.35,0,.7-.01,1.05-.01.46,0,.92.01,1.38.04.46.03.93.05,1.38.07l.18,2.26c.49-.9,1.16-1.65,2-2.26.84-.61,1.75-.91,2.72-.91.49,0,1,.03,1.53.09s1.03.18,1.52.35c.48.18.94.42,1.37.73.43.31.79.71,1.09,1.2.14.23.26.58.36,1.04.1.46.18.98.25,1.55.07.58.13,1.19.17,1.83s.08,1.26.09,1.85.03,1.12.04,1.6c0,.48.01.84.01,1.1Z"/>
          <path class="cls-2" d="M268.23,108.75c0,.39-.08.76-.22,1.1-.15.34-.35.64-.61.89-.25.25-.54.45-.86.6s-.63.22-.95.22c-.35,0-.68-.09-.99-.26s-.58-.4-.8-.67c-.23-.27-.4-.59-.53-.95-.12-.36-.18-.73-.18-1.1s.07-.72.2-1.04c.13-.32.31-.6.53-.83s.47-.42.77-.56c.29-.14.6-.21.94-.21s.66.07.99.22.62.35.87.62c.25.26.46.57.62.91.16.34.24.7.24,1.07ZM269.32,113.73c-.09,1.04-.16,2.06-.21,3.08-.05,1.02-.11,2.03-.16,3.05-.07,1.19-.19,2.37-.36,3.54-.17,1.17-.36,2.34-.57,3.52l-4.03.47c0-.62,0-1.24.01-1.85,0-.61.01-1.22.01-1.85,0-1.6-.03-3.2-.08-4.8-.05-1.6-.11-3.2-.16-4.8.93-.04,1.85-.1,2.76-.18.9-.08,1.83-.14,2.78-.18Z"/>
          <path class="cls-2" d="M284.28,123.16l-.45,5.16c-.56.04-1.12.07-1.69.1s-1.12.04-1.69.04c-.3,0-.69-.01-1.19-.03-.49-.02-1-.05-1.53-.1s-1.03-.12-1.5-.21-.85-.2-1.13-.34c-.42-.21-.77-.5-1.04-.85-.27-.35-.5-.74-.67-1.16-.18-.42-.32-.87-.42-1.35-.11-.48-.18-.95-.24-1.42-.05-.45-.09-.93-.12-1.45-.03-.52-.04-1.05-.05-1.6,0-.55-.01-1.08-.01-1.6v-2.33h-1.63c.07-.88.11-1.75.12-2.61,0-.86.05-1.73.12-2.61l1.58.06v-4.34c1,.22,2,.33,2.99.34.99.01,1.99.05,2.99.13l-.05,4.48,2.21.15c0,.14,0,.26.01.38s.01.24.01.38c0,.55-.04,1.08-.12,1.6-.08.52-.18,1.04-.3,1.57h-1.92c-.04.9-.06,1.8-.08,2.7-.02.9-.03,1.8-.03,2.7,0,.43.01.82.04,1.16.03.34.1.63.21.86.11.23.3.41.57.53s.63.18,1.11.18c.65,0,1.3-.05,1.95-.15.65-.1,1.3-.22,1.95-.38Z"/>
          <path class="cls-2" d="M303.43,115.13c0,1.64-.05,3.27-.16,4.89-.11,1.62-.21,3.24-.32,4.86-1.97.2-3.93.36-5.88.5-1.95.14-3.91.21-5.88.21-.18,0-.5,0-.98-.01-.47,0-.98-.03-1.5-.06s-1.03-.07-1.5-.12c-.47-.05-.79-.12-.95-.22-.58-.35-.98-.8-1.21-1.33-.23-.54-.34-1.15-.34-1.83,0-.23,0-.55.03-.94.02-.39.05-.8.11-1.23.05-.43.12-.83.21-1.2.09-.37.19-.64.32-.82.16-.23.52-.43,1.08-.6.56-.17,1.23-.3,2.02-.4.78-.1,1.63-.18,2.53-.23s1.77-.1,2.6-.13,1.56-.04,2.21-.04h1.4c.05-.43.08-.85.08-1.26v-.31c0-.17,0-.27-.03-.31-.05-.12-.22-.21-.5-.29-.28-.08-.63-.14-1.04-.18-.41-.04-.86-.07-1.35-.1s-.95-.04-1.41-.04h-1.98c-1.11,0-2.21.02-3.32.07-1.11.05-2.21.09-3.32.13.07-.74.13-1.49.17-2.26s.05-1.51.01-2.26c1.28-.25,2.57-.43,3.86-.54,1.29-.11,2.6-.16,3.92-.16.47,0,.99,0,1.56.01.56.01,1.12.03,1.69.06s1.12.07,1.67.13c.55.06,1.07.14,1.54.23.49.1.98.27,1.46.53.48.25.94.57,1.36.94.42.37.79.8,1.11,1.27.32.48.54.99.69,1.54.02.06.03.16.04.29,0,.14.01.29.01.45v.75ZM297.55,122.02v-3.75c-.51-.02-1.02-.03-1.53-.04-.51,0-1.02-.01-1.53-.01-.11,0-.4,0-.88.01-.48.01-1,.03-1.56.07-.55.04-1.06.09-1.52.15s-.72.15-.79.26c-.09.16-.14.32-.17.48-.03.17-.04.34-.04.51,0,.14,0,.32.03.56s.05.48.09.73c.04.25.09.49.14.7.05.22.12.37.21.47.07.1.19.17.36.22.17.05.35.09.54.12s.39.05.58.06c.19.01.34.01.45.01.42,0,.87-.02,1.36-.06.48-.04.97-.08,1.48-.13.5-.05.99-.11,1.46-.18.47-.07.91-.13,1.32-.19Z"/>
        </g>
        <g>
          <path class="cls-2" d="M291.36,33.98v1.07c0,.38-.04.73-.11,1.07-.05.26-.11.48-.17.68-.06.19-.14.37-.24.53-.1.16-.21.3-.35.44-.14.13-.31.27-.51.4-.06.05-.23.11-.51.18-.27.08-.61.17-1.02.27s-.86.22-1.36.33c-.5.12-1.01.23-1.54.34-.52.11-1.04.22-1.55.33-.51.11-.98.21-1.39.3-.42.09-.77.16-1.06.23-.29.06-.48.1-.58.11-.18-2.14-.35-4.27-.51-6.38s-.28-4.24-.36-6.4c.89.04,1.77.07,2.64.11.88.04,1.76.1,2.66.17.23.02.57.05,1.02.09.45.04.91.09,1.4.15.48.06.94.14,1.37.24.43.09.74.21.93.35.24.2.46.47.65.81.19.34.33.67.41,1,.04.15.07.39.1.71.02.32.04.67.05,1.03,0,.36.02.71.02,1.05,0,.34,0,.6,0,.77ZM287.42,34.21c0-.13,0-.27,0-.41,0-.15-.01-.28-.02-.41-.02-.19-.05-.38-.09-.59-.04-.2-.09-.4-.15-.6-.06-.19-.14-.38-.24-.54-.1-.17-.21-.32-.35-.45-.07-.07-.25-.13-.54-.17-.28-.04-.6-.07-.93-.09-.34-.02-.65-.03-.95-.04-.29,0-.48,0-.57,0h-.65c.08.91.16,1.81.23,2.7.07.89.13,1.78.18,2.7.2-.01.49-.04.86-.1.37-.05.76-.12,1.15-.21s.75-.2,1.09-.33c.34-.13.58-.3.73-.48.12-.14.19-.29.21-.45.03-.16.04-.33.04-.52Z"/>
          <path class="cls-2" d="M302.37,29.59c-1.03.06-2.06.12-3.08.18-1.02.06-2.04.14-3.08.24l-.03,1.39,4.08-.26c.05.4.09.79.12,1.18.03.39.04.78.04,1.18,0,.16,0,.33,0,.51,0,.18,0,.35,0,.51l-3.8.76.24,2.18c.8-.06,1.6-.14,2.4-.25.8-.11,1.6-.21,2.41-.29.07.59.15,1.18.22,1.77.07.59.18,1.17.32,1.73-1.5-.01-2.98,0-4.46,0-1.48.02-2.96.03-4.46.03.03-1.37.07-2.74.11-4.1.04-1.36.06-2.73.06-4.11v-.33c0-.8,0-1.59-.03-2.38s-.04-1.59-.06-2.4c.83.01,1.66.01,2.49,0,.83,0,1.66,0,2.51,0,.64,0,1.29.01,1.92.04.64.03,1.28.06,1.92.1l.17,2.34Z"/>
          <path class="cls-2" d="M288.97,55.86c-1.26.11-2.5.21-3.74.3-1.24.09-2.49.18-3.74.26-.05-2.24-.09-4.46-.13-6.67-.03-2.21-.09-4.44-.17-6.69.71-.01,1.4-.04,2.09-.07.69-.04,1.38-.08,2.07-.14-.12.87-.22,1.74-.32,2.61-.1.87-.18,1.75-.23,2.63-.04.74-.08,1.47-.1,2.21-.03.73-.05,1.47-.07,2.21.7.02,1.38.04,2.06.04s1.36.01,2.05.04l.24,3.29Z"/>
          <path class="cls-2" d="M300.88,56.24l-2.4.4c-.17-.6-.34-1.19-.51-1.78-.17-.59-.33-1.19-.49-1.78l-3.89.16-.49,2.34h-2.44c.15-1.99.3-3.97.46-5.94s.31-3.94.46-5.92c.76-.14,1.52-.26,2.27-.35.75-.09,1.52-.14,2.29-.14.94,0,1.88.02,2.82.05.17,1.22.33,2.43.5,3.65s.33,2.43.51,3.65c.13.96.27,1.91.42,2.85.15.94.32,1.88.5,2.83ZM296.92,50.69c0-.11-.04-.3-.08-.59-.04-.29-.09-.59-.14-.91-.05-.32-.11-.62-.18-.88-.07-.26-.13-.42-.2-.47-.02-.01-.07-.02-.15-.04-.08-.01-.16-.02-.25-.04-.09-.01-.18-.02-.26-.02h-.39c-.09,0-.19,0-.29,0-.1,0-.2.02-.29.04-.09.02-.15.05-.18.09-.02.01-.05.09-.08.23-.03.14-.07.31-.12.52-.05.21-.1.42-.14.66-.05.23-.09.46-.13.67-.04.21-.08.39-.1.54-.03.15-.04.24-.05.26l3.04-.09Z"/>
        </g>
      </g>
      <g>
        <g>
          <g>
            <path class="cls-1" d="M73.53,101.65c0,2.92-.27,6.8-.74,9.94-.49,3.06-1.19,6.91-2.79,9.31-.84,1.18-3.22,4-5.54,5.05-6.09,2.89-8,3.36-14.31,4.44-9.47,1.62-26.71-.35-34.28-1.36-2.14-.29-3.74-2.11-3.74-4.28v-22.72s20.69.58,30.03.14c2.7-.13,4.96-.25,6.78-.38,1.82-.13,2.85-.32,3.08-.57,2.11-2.02.55-12.16-.97-14.23-.15-.25-.93-.48-2.34-.7-1.41-.21-3.1-.4-5.07-.57-6.41-.54-19.63-1.93-25.79-2.11-.63-2.83-.43-7.96-.46-11.02l30.51-5.12,3.26-8.13c-13.14-.31-39.05-.88-39.05-.88v-23.19s39.34-3.08,59.56-2.77c.21,11.08.17,22.1-.11,33.18-6.92,3.63-13.72,7.47-20.4,11.52,5.34,1.35,16.67,6.13,18.25,7.35,4.87,3.77,3.94,11.49,4.1,17.1Z"/>
            <g class="cls-5">
              <path class="cls-3" d="M81.61,23.23c-1.72-2.5-5.07-2.51-7.53-2.75-.36-3.22-1.48-6.53-4.05-7.93-2.99-1.63-5.93-1.59-9.06.41-1.15-4.94-4.71-7.39-8.87-8.05-4.07-.65-8.42.71-10.93,4.76-2.81-2.94-5.79-3.65-9.34-3.59-5.6.09-10.42,3.83-10.74,10.04-3.27-1.54-6.19-1.48-8.84.24-2.54,1.65-3.93,4.83-3.6,8.53-3.48.31-6.33,2.8-6.88,6.49-.14.94-.08,1.93.2,2.83.2.65.51,1.25.94,1.76.54,1.15,2.09,2,3.19,2.88,1.06.87,1.29,2.86,1.51,4.14.33,1.91-.16,3.3-1.4,4.76-.92,1.08-2,2.05-2.65,3.33-1.1,2.19-.61,5.13,1.14,6.79,2.69,2.56,7.2,1.58,8.41-1.97,1.01-2.96,1.05-6.46.81-9.57-.09-1.2.13-3.68.85-1.36.42,1.38-.17,2.47,1.06,3.67.65.64,1.51,1.01,2.39,1.17.77.14,1.59.12,2.29-.23,1.29-.64,1.9-2.23,2.03-3.72.04-.44-.09-5.2-.09-5.2,3.84-.83,7.63,3.89,12.57-2.56,2.07,3.05,5.33,4.95,8.94,3.79,1.15-.37,2.21-1.05,3.07-1.93.42-.43.74-1.22,1.18-1.57.74-.58.41-.42,1.39,0,2.45,1.05,4.89.64,6.55-1.66,1.17.48,2.09.95,3.14,1.14-.57,2.08-1.21,4.1-1.68,6.21-.31,1.41-.48,2.9-.13,4.29.84,3.36,5.51,4.49,6.55.59.29-1.09.17-2.25.04-3.37-.2-1.81-.41-3.63-.61-5.44.88.36,1.77.76,2.5,1.4.73.64,1.29,1.55,1.3,2.55.02,1.65-.93,3.2-.96,4.88-.02,1.06.25,2.16.92,2.95.77.91,1.96,1.3,3.11,1.46,1.02.14,2.09.14,3.04-.28,2.38-1.05,3.74-4.49,3.7-7.05,0-.42-.69-4.63-1.29-4.43,1.31-.44,2.85-1.78,3.12-3.32.22-1.25,2.5-4.31,2.5-4.31,0,0-.02,0-.03.01,2.74-2.73,2.39-7.64.23-10.79Z"/>
            </g>
          </g>
          <path class="cls-1" d="M95.71,93.39l-12.31,1.39.19,3.66,12.31-1.39-.19-3.66ZM100.59,72.39c-.05-2.06-.19-4.2-.44-6.4-.24-2.2-.57-4.28-.97-6.24-.41-1.96-.91-3.38-1.51-4.27-.49-.87-1.15-1.46-1.97-1.75-.83-.3-1.69-.49-2.59-.59-1.31-.14-2.66-.15-4.04-.03-1.37.11-2.73.22-4.08.31-.76.1-1.46.54-2.1,1.32-.65.79-1.22,1.77-1.72,2.95-.5,1.18-.93,2.49-1.3,3.92s-.69,2.84-.97,4.22c-.28,1.39-.5,2.67-.66,3.86-.15,1.19-.26,2.11-.33,2.75-.09.87-.04,2.16.15,3.85.19,1.7.5,3.47.91,5.31.42,1.84.9,3.55,1.46,5.14.55,1.59,1.11,2.71,1.68,3.36.43.46.92.76,1.46.91.55.15,1.09.25,1.61.3.64.07,1.42.1,2.36.08.94-.02,1.9-.06,2.9-.13s1.95-.18,2.88-.31c.92-.14,1.66-.32,2.22-.56.78-.27,1.45-.96,2.03-2.08.57-1.11,1.06-2.37,1.48-3.77.42-1.39.74-2.77.96-4.13.23-1.36.38-2.42.46-3.17.13-1.17.17-2.78.12-4.85ZM95.35,70.51c-.1.87-.31,1.83-.63,2.89-.33,1.05-.77,2.03-1.32,2.94-.55.92-1.2,1.66-1.96,2.22-.75.57-1.63.8-2.64.69-1.11-.12-2-.61-2.68-1.48-.68-.87-1.2-1.89-1.56-3.08-.35-1.18-.56-2.43-.64-3.73-.07-1.3-.06-2.45.05-3.44.09-.87.26-1.84.51-2.9s.59-2.07,1.04-3.02c.45-.95,1.04-1.73,1.77-2.33.74-.6,1.6-.84,2.61-.74,1.16.13,2.12.63,2.88,1.51.76.87,1.35,1.9,1.75,3.1.41,1.19.68,2.45.8,3.79.12,1.34.13,2.53.02,3.58Z"/>
        </g>
        <path class="cls-1" d="M84.28,25.71c0,.22-.01.44-.02.65-.12-1.76-.75-3.54-1.77-4.95-1.77-2.47-5.23-2.47-7.77-2.71-.37-3.17-1.53-6.43-4.19-7.81-3.08-1.61-6.11-1.57-9.35.41-1.19-4.87-4.86-7.29-9.16-7.94-4.2-.63-8.69.71-11.28,4.69-2.9-2.89-5.98-3.59-9.64-3.53-5.77.08-10.75,3.77-11.08,9.89-3.38-1.52-6.39-1.46-9.12.23-2.62,1.63-4.06,4.76-3.72,8.4-3.59.31-6.53,2.77-7.1,6.4-.04.27-.07.54-.07.81,0,0-.01,0-.01-.01,0-5.38,2.56-7.76,6.06-8.38-.36-3.9.93-7.89,3.65-9.63,2.83-1.81,5.96-1.87,9.46-.25.34-6.54,5.5-10.5,11.5-10.59,3.79-.06,6.99.69,10,3.79C43.36.91,48.01-.52,52.37.16c4.46.7,8.27,3.29,9.5,8.49,3.36-2.11,6.51-2.15,9.7-.43,2.76,1.48,3.96,4.97,4.34,8.36,2.64.25,8.37.87,8.37,9.13Z"/>
        <g>
          <g>
            <path class="cls-4" d="M60.73,42.78c-1.69.23-1.63,3.13-1.6,4.07.82,1.26,2.75,1.24,3.77.18.25-1.15-.78-4.45-2.17-4.25ZM16.86,39.49c-1.13-.1-1.83,1.07-1.92,2.67-.09,1.63.26,2.58,1.2,2.98.67.28,1.94.21,2.44-.57,1.05-1.63-.31-4.94-1.72-5.08ZM7.19,47.13c-2.09-1.3-4,2.1-3.77,3.98.32,2.75,2.74,4.23,5.52,3.25.73-.26,1.05-.98,1.11-1.46.21-1.6-3.14-1.47-2.86-5.77Z"/>
            <path class="cls-4" d="M80.51,33.22c-.75.35-1.52.5-2.29.49-2.68-.03-5.31-2.01-6.93-4.04-.15-.19-.3-.47-.13-.64-2.4,1.2-4.49,2.3-7.2,2.06-.14-.01-.27-.02-.41-.04-1.33-.18-2.61-.65-3.78-1.32-.4-.23-3.12-1.91-3.12-2.45-.53,1.83-1.16,4.27-3.29,4.63-2.47.42-4.65-1.36-6.3-2.94-.98,1.61-1.8,2.9-2.72,3.46-3.56,2.17-8.3-2.04-12.11-6.3-.23,2.9.05,6.1-2.34,7.69-2.1,1.4-4.87-.49-6.82-2.16-1.23,1.94-2.55,3.48-4.51,3.4-1.81-.08-3.38-1.3-4.94-3.25.34.43-2.38,2.72-2.74,2.95-2.72,1.78-7.32,1.79-9.61-.77l-.02-.02c.56,1.13,2.16,1.97,3.3,2.84,1.09.85,1.33,2.81,1.56,4.07.34,1.88-.17,3.25-1.45,4.69-.95,1.07-2.07,2.02-2.74,3.29-1.13,2.15-.62,5.05,1.18,6.69,2.78,2.52,7.43,1.55,8.68-1.95,1.04-2.92,1.09-6.36.84-9.42-.1-1.19.13-3.63.88-1.34.43,1.35-.18,2.43,1.09,3.61.67.62,1.56.99,2.47,1.15.79.14,1.64.12,2.36-.22,1.33-.63,1.97-2.2,2.1-3.66.04-.44-.09-5.12-.09-5.12,3.96-.82,7.88,3.83,12.98-2.52,2.14,3,5.5,4.87,9.22,3.73,1.19-.37,2.29-1.03,3.17-1.9.43-.43.77-1.21,1.22-1.55.76-.58.43-.42,1.44,0,2.53,1.03,5.04.63,6.76-1.64,1.21.47,2.16.94,3.24,1.12-.59,2.04-1.25,4.03-1.73,6.12-.33,1.39-.5,2.85-.14,4.23.87,3.31,5.69,4.42,6.76.58.3-1.08.17-2.22.04-3.32-.21-1.79-.42-3.58-.63-5.36.91.36,1.83.75,2.58,1.37.75.63,1.33,1.53,1.34,2.51.03,1.63-.96,3.15-.99,4.81-.02,1.04.26,2.12.95,2.9.8.9,2.03,1.28,3.22,1.44,1.05.14,2.15.13,3.13-.28,2.46-1.03,3.86-4.42,3.82-6.94,0-.41-.67-4.37-1.28-4.37,1.34-.45,2.9-1.77,3.18-3.26.22-1.15,2.29-3.87,2.54-4.21-.48.45-1.06.85-1.74,1.16ZM8.94,54.36c-2.78.98-5.2-.5-5.52-3.25-.23-1.88,1.68-5.28,3.77-3.98-.28,4.3,3.07,4.17,2.86,5.77-.06.48-.38,1.2-1.11,1.46ZM18.58,44.57c-.5.78-1.77.85-2.44.57-.94-.4-1.29-1.35-1.2-2.98.09-1.6.79-2.77,1.92-2.67,1.41.14,2.77,3.45,1.72,5.08ZM62.9,47.03c-1.02,1.06-2.95,1.08-3.77-.18-.03-.94-.09-3.84,1.6-4.07,1.39-.2,2.42,3.1,2.17,4.25ZM67,38.05c-.07-.08-.13-.17-.18-.26-.35-.62-.27-1.43-.12-2.15.16-.74.37-1.49.82-2.11.13-.18.26-.33.39-.46,1.18-1.21,2.28-.44,2.76.87.42,1.17.35,2.78-.6,3.78-.39.42-.91.75-1.48.84-.57.1-1.2-.08-1.59-.51ZM75.04,46.95c-.55,1.09-1.72,2.56-3.61,2.25-1.02-.17-2.45-.85-2.45-2.05,0-.64.32-1.23.66-1.77.65-1.03,1.45-1.98,2.35-2.81.32-.3.68-.59,1.1-.72.37-.11.69-.12.96-.06,1.75.39,1.6,3.95.99,5.16Z"/>
          </g>
          <path class="cls-2" d="M82.28,32.02s-.02.02-.03.04c-.48.45-1.06.85-1.74,1.16-.75.35-1.52.5-2.29.49-2.68-.03-5.31-2.01-6.93-4.04-.15-.19-.3-.47-.13-.64-2.4,1.2-4.49,2.3-7.2,2.06-.14-.01-.27-.02-.41-.04-1.33-.18-2.61-.65-3.78-1.32-.4-.23-3.12-1.91-3.12-2.45-.53,1.83-1.16,4.27-3.29,4.63-2.47.42-4.65-1.36-6.3-2.94-.98,1.61-1.8,2.9-2.72,3.46-3.56,2.17-8.3-2.04-12.11-6.3-.23,2.9.05,6.1-2.34,7.69-2.1,1.4-4.87-.49-6.82-2.16-1.23,1.94-2.55,3.48-4.51,3.4-1.81-.08-3.38-1.3-4.94-3.25.34.43-2.38,2.72-2.74,2.95-2.72,1.78-7.32,1.79-9.61-.77l-.02-.02c-.44-.51-.76-1.1-.97-1.74-.21-.63-.3-1.31-.27-1.98,0-.27.03-.54.07-.81.57-3.63,3.51-6.09,7.1-6.4-.34-3.64,1.1-6.77,3.72-8.4,2.73-1.69,5.74-1.75,9.12-.23.33-6.12,5.31-9.81,11.08-9.89,3.66-.06,6.74.64,9.64,3.53,2.59-3.98,7.08-5.32,11.28-4.69,4.3.65,7.97,3.07,9.16,7.94,3.24-1.98,6.27-2.02,9.35-.41,2.66,1.38,3.82,4.64,4.19,7.81,2.54.24,6,.24,7.77,2.71,1.02,1.41,1.65,3.19,1.77,4.95.14,2.11-.45,4.2-1.98,5.66Z"/>
          <path class="cls-2" d="M70.07,37.72c-.39.42-.91.75-1.48.84-.57.1-1.2-.08-1.59-.51-.07-.08-.13-.17-.18-.26-.35-.62-.27-1.43-.12-2.15.16-.74.37-1.49.82-2.11.13-.18.26-.33.39-.46,1.18-1.21,2.28-.44,2.76.87.42,1.17.35,2.78-.6,3.78Z"/>
          <path class="cls-2" d="M75.04,46.95c-.55,1.09-1.72,2.56-3.61,2.25-1.02-.17-2.45-.85-2.45-2.05,0-.64.32-1.23.66-1.77.65-1.03,1.45-1.98,2.35-2.81.32-.3.68-.59,1.1-.72.37-.11.69-.12.96-.06,1.75.39,1.6,3.95.99,5.16Z"/>
          <path class="cls-2" d="M10.05,52.9c-.06.48-.38,1.2-1.11,1.46-2.78.98-5.2-.5-5.52-3.25-.23-1.88,1.68-5.28,3.77-3.98-.28,4.3,3.07,4.17,2.86,5.77Z"/>
          <path class="cls-2" d="M18.58,44.57c-.5.78-1.77.85-2.44.57-.94-.4-1.29-1.35-1.2-2.98.09-1.6.79-2.77,1.92-2.67,1.41.14,2.77,3.45,1.72,5.08Z"/>
          <path class="cls-2" d="M62.9,47.03c-1.02,1.06-2.95,1.08-3.77-.18-.03-.94-.09-3.84,1.6-4.07,1.39-.2,2.42,3.1,2.17,4.25Z"/>
        </g>
      </g>
    </g>
  </g>
</svg>